G04 #@! TF.GenerationSoftware,KiCad,Pcbnew,(6.0.11)*
G04 #@! TF.CreationDate,2024-06-06T18:38:18+02:00*
G04 #@! TF.ProjectId,Wireless_Motion,57697265-6c65-4737-935f-4d6f74696f6e,rev?*
G04 #@! TF.SameCoordinates,Original*
G04 #@! TF.FileFunction,Paste,Top*
G04 #@! TF.FilePolarity,Positive*
%FSLAX45Y45*%
G04 Gerber Fmt 4.5, Leading zero omitted, Abs format (unit mm)*
G04 Created by KiCad (PCBNEW (6.0.11)) date 2024-06-06 18:38:18*
%MOMM*%
%LPD*%
G01*
G04 APERTURE LIST*
%ADD10R,0.675000X0.254000*%
%ADD11R,0.254000X0.675000*%
%ADD12R,0.700000X1.600000*%
%ADD13R,1.200000X2.200000*%
%ADD14R,1.600000X1.400000*%
%ADD15R,1.200000X1.400000*%
%ADD16R,4.500000X1.400000*%
%ADD17R,4.450000X1.400000*%
%ADD18R,0.600000X1.200000*%
%ADD19R,1.400000X4.500000*%
%ADD20R,1.400000X4.450000*%
%ADD21R,1.600000X0.350000*%
%ADD22R,1.400000X1.050000*%
%ADD23R,1.250000X2.500000*%
%ADD24R,0.900000X1.200000*%
%ADD25R,1.150000X0.600000*%
%ADD26R,1.150000X0.300000*%
%ADD27R,1.800000X1.000000*%
%ADD28R,0.500000X0.375000*%
%ADD29R,0.650000X0.300000*%
%ADD30R,1.050000X1.050000*%
%ADD31R,0.900000X1.500000*%
%ADD32R,1.500000X0.900000*%
G04 APERTURE END LIST*
G36*
G01*
X11790500Y-4821500D02*
X11740500Y-4821500D01*
G75*
G02*
X11718000Y-4799000I0J22500D01*
G01*
X11718000Y-4754000D01*
G75*
G02*
X11740500Y-4731500I22500J0D01*
G01*
X11790500Y-4731500D01*
G75*
G02*
X11813000Y-4754000I0J-22500D01*
G01*
X11813000Y-4799000D01*
G75*
G02*
X11790500Y-4821500I-22500J0D01*
G01*
G37*
G36*
G01*
X11790500Y-4976500D02*
X11740500Y-4976500D01*
G75*
G02*
X11718000Y-4954000I0J22500D01*
G01*
X11718000Y-4909000D01*
G75*
G02*
X11740500Y-4886500I22500J0D01*
G01*
X11790500Y-4886500D01*
G75*
G02*
X11813000Y-4909000I0J-22500D01*
G01*
X11813000Y-4954000D01*
G75*
G02*
X11790500Y-4976500I-22500J0D01*
G01*
G37*
G36*
G01*
X11472655Y-6269000D02*
X11422655Y-6269000D01*
G75*
G02*
X11400155Y-6246500I0J22500D01*
G01*
X11400155Y-6201500D01*
G75*
G02*
X11422655Y-6179000I22500J0D01*
G01*
X11472655Y-6179000D01*
G75*
G02*
X11495155Y-6201500I0J-22500D01*
G01*
X11495155Y-6246500D01*
G75*
G02*
X11472655Y-6269000I-22500J0D01*
G01*
G37*
G36*
G01*
X11472655Y-6424000D02*
X11422655Y-6424000D01*
G75*
G02*
X11400155Y-6401500I0J22500D01*
G01*
X11400155Y-6356500D01*
G75*
G02*
X11422655Y-6334000I22500J0D01*
G01*
X11472655Y-6334000D01*
G75*
G02*
X11495155Y-6356500I0J-22500D01*
G01*
X11495155Y-6401500D01*
G75*
G02*
X11472655Y-6424000I-22500J0D01*
G01*
G37*
G36*
G01*
X11022500Y-6039000D02*
X11022500Y-6089000D01*
G75*
G02*
X11000000Y-6111500I-22500J0D01*
G01*
X10955000Y-6111500D01*
G75*
G02*
X10932500Y-6089000I0J22500D01*
G01*
X10932500Y-6039000D01*
G75*
G02*
X10955000Y-6016500I22500J0D01*
G01*
X11000000Y-6016500D01*
G75*
G02*
X11022500Y-6039000I0J-22500D01*
G01*
G37*
G36*
G01*
X11177500Y-6039000D02*
X11177500Y-6089000D01*
G75*
G02*
X11155000Y-6111500I-22500J0D01*
G01*
X11110000Y-6111500D01*
G75*
G02*
X11087500Y-6089000I0J22500D01*
G01*
X11087500Y-6039000D01*
G75*
G02*
X11110000Y-6016500I22500J0D01*
G01*
X11155000Y-6016500D01*
G75*
G02*
X11177500Y-6039000I0J-22500D01*
G01*
G37*
G36*
G01*
X11257500Y-6104000D02*
X11312500Y-6104000D01*
G75*
G02*
X11332500Y-6124000I0J-20000D01*
G01*
X11332500Y-6164000D01*
G75*
G02*
X11312500Y-6184000I-20000J0D01*
G01*
X11257500Y-6184000D01*
G75*
G02*
X11237500Y-6164000I0J20000D01*
G01*
X11237500Y-6124000D01*
G75*
G02*
X11257500Y-6104000I20000J0D01*
G01*
G37*
G36*
G01*
X11257500Y-5939000D02*
X11312500Y-5939000D01*
G75*
G02*
X11332500Y-5959000I0J-20000D01*
G01*
X11332500Y-5999000D01*
G75*
G02*
X11312500Y-6019000I-20000J0D01*
G01*
X11257500Y-6019000D01*
G75*
G02*
X11237500Y-5999000I0J20000D01*
G01*
X11237500Y-5959000D01*
G75*
G02*
X11257500Y-5939000I20000J0D01*
G01*
G37*
G36*
G01*
X14588000Y-7231500D02*
X14588000Y-7101500D01*
G75*
G02*
X14613000Y-7076500I25000J0D01*
G01*
X14678000Y-7076500D01*
G75*
G02*
X14703000Y-7101500I0J-25000D01*
G01*
X14703000Y-7231500D01*
G75*
G02*
X14678000Y-7256500I-25000J0D01*
G01*
X14613000Y-7256500D01*
G75*
G02*
X14588000Y-7231500I0J25000D01*
G01*
G37*
G36*
G01*
X14293000Y-7231500D02*
X14293000Y-7101500D01*
G75*
G02*
X14318000Y-7076500I25000J0D01*
G01*
X14383000Y-7076500D01*
G75*
G02*
X14408000Y-7101500I0J-25000D01*
G01*
X14408000Y-7231500D01*
G75*
G02*
X14383000Y-7256500I-25000J0D01*
G01*
X14318000Y-7256500D01*
G75*
G02*
X14293000Y-7231500I0J25000D01*
G01*
G37*
G36*
G01*
X11395000Y-7291500D02*
X11395000Y-7346500D01*
G75*
G02*
X11375000Y-7366500I-20000J0D01*
G01*
X11335000Y-7366500D01*
G75*
G02*
X11315000Y-7346500I0J20000D01*
G01*
X11315000Y-7291500D01*
G75*
G02*
X11335000Y-7271500I20000J0D01*
G01*
X11375000Y-7271500D01*
G75*
G02*
X11395000Y-7291500I0J-20000D01*
G01*
G37*
G36*
G01*
X11560000Y-7291500D02*
X11560000Y-7346500D01*
G75*
G02*
X11540000Y-7366500I-20000J0D01*
G01*
X11500000Y-7366500D01*
G75*
G02*
X11480000Y-7346500I0J20000D01*
G01*
X11480000Y-7291500D01*
G75*
G02*
X11500000Y-7271500I20000J0D01*
G01*
X11540000Y-7271500D01*
G75*
G02*
X11560000Y-7291500I0J-20000D01*
G01*
G37*
G36*
G01*
X9333000Y-4854000D02*
X9333000Y-4904000D01*
G75*
G02*
X9310500Y-4926500I-22500J0D01*
G01*
X9265500Y-4926500D01*
G75*
G02*
X9243000Y-4904000I0J22500D01*
G01*
X9243000Y-4854000D01*
G75*
G02*
X9265500Y-4831500I22500J0D01*
G01*
X9310500Y-4831500D01*
G75*
G02*
X9333000Y-4854000I0J-22500D01*
G01*
G37*
G36*
G01*
X9488000Y-4854000D02*
X9488000Y-4904000D01*
G75*
G02*
X9465500Y-4926500I-22500J0D01*
G01*
X9420500Y-4926500D01*
G75*
G02*
X9398000Y-4904000I0J22500D01*
G01*
X9398000Y-4854000D01*
G75*
G02*
X9420500Y-4831500I22500J0D01*
G01*
X9465500Y-4831500D01*
G75*
G02*
X9488000Y-4854000I0J-22500D01*
G01*
G37*
G36*
G01*
X9298000Y-4594000D02*
X9248000Y-4594000D01*
G75*
G02*
X9225500Y-4571500I0J22500D01*
G01*
X9225500Y-4526500D01*
G75*
G02*
X9248000Y-4504000I22500J0D01*
G01*
X9298000Y-4504000D01*
G75*
G02*
X9320500Y-4526500I0J-22500D01*
G01*
X9320500Y-4571500D01*
G75*
G02*
X9298000Y-4594000I-22500J0D01*
G01*
G37*
G36*
G01*
X9298000Y-4749000D02*
X9248000Y-4749000D01*
G75*
G02*
X9225500Y-4726500I0J22500D01*
G01*
X9225500Y-4681500D01*
G75*
G02*
X9248000Y-4659000I22500J0D01*
G01*
X9298000Y-4659000D01*
G75*
G02*
X9320500Y-4681500I0J-22500D01*
G01*
X9320500Y-4726500D01*
G75*
G02*
X9298000Y-4749000I-22500J0D01*
G01*
G37*
G36*
G01*
X8832500Y-6801500D02*
X8882500Y-6801500D01*
G75*
G02*
X8905000Y-6824000I0J-22500D01*
G01*
X8905000Y-6869000D01*
G75*
G02*
X8882500Y-6891500I-22500J0D01*
G01*
X8832500Y-6891500D01*
G75*
G02*
X8810000Y-6869000I0J22500D01*
G01*
X8810000Y-6824000D01*
G75*
G02*
X8832500Y-6801500I22500J0D01*
G01*
G37*
G36*
G01*
X8832500Y-6646500D02*
X8882500Y-6646500D01*
G75*
G02*
X8905000Y-6669000I0J-22500D01*
G01*
X8905000Y-6714000D01*
G75*
G02*
X8882500Y-6736500I-22500J0D01*
G01*
X8832500Y-6736500D01*
G75*
G02*
X8810000Y-6714000I0J22500D01*
G01*
X8810000Y-6669000D01*
G75*
G02*
X8832500Y-6646500I22500J0D01*
G01*
G37*
D10*
X11906250Y-5161500D03*
X11906250Y-5211500D03*
X11906250Y-5261500D03*
X11906250Y-5311500D03*
X11906250Y-5361500D03*
X11906250Y-5411500D03*
X11906250Y-5461500D03*
X11906250Y-5511500D03*
X11906250Y-5561500D03*
D11*
X11815000Y-5575250D03*
X11765000Y-5575250D03*
X11715000Y-5575250D03*
X11665000Y-5575250D03*
D10*
X11573750Y-5561500D03*
X11573750Y-5511500D03*
X11573750Y-5461500D03*
X11573750Y-5411500D03*
X11573750Y-5361500D03*
X11573750Y-5311500D03*
X11573750Y-5261500D03*
X11573750Y-5211500D03*
X11573750Y-5161500D03*
X11573750Y-5111500D03*
D11*
X11665000Y-5097750D03*
X11715000Y-5097750D03*
X11765000Y-5097750D03*
X11815000Y-5097750D03*
D10*
X11906250Y-5111500D03*
G36*
G01*
X10270000Y-6454000D02*
X10270000Y-6504000D01*
G75*
G02*
X10247500Y-6526500I-22500J0D01*
G01*
X10202500Y-6526500D01*
G75*
G02*
X10180000Y-6504000I0J22500D01*
G01*
X10180000Y-6454000D01*
G75*
G02*
X10202500Y-6431500I22500J0D01*
G01*
X10247500Y-6431500D01*
G75*
G02*
X10270000Y-6454000I0J-22500D01*
G01*
G37*
G36*
G01*
X10425000Y-6454000D02*
X10425000Y-6504000D01*
G75*
G02*
X10402500Y-6526500I-22500J0D01*
G01*
X10357500Y-6526500D01*
G75*
G02*
X10335000Y-6504000I0J22500D01*
G01*
X10335000Y-6454000D01*
G75*
G02*
X10357500Y-6431500I22500J0D01*
G01*
X10402500Y-6431500D01*
G75*
G02*
X10425000Y-6454000I0J-22500D01*
G01*
G37*
G36*
G01*
X13610000Y-5639000D02*
X13610000Y-5689000D01*
G75*
G02*
X13587500Y-5711500I-22500J0D01*
G01*
X13542500Y-5711500D01*
G75*
G02*
X13520000Y-5689000I0J22500D01*
G01*
X13520000Y-5639000D01*
G75*
G02*
X13542500Y-5616500I22500J0D01*
G01*
X13587500Y-5616500D01*
G75*
G02*
X13610000Y-5639000I0J-22500D01*
G01*
G37*
G36*
G01*
X13765000Y-5639000D02*
X13765000Y-5689000D01*
G75*
G02*
X13742500Y-5711500I-22500J0D01*
G01*
X13697500Y-5711500D01*
G75*
G02*
X13675000Y-5689000I0J22500D01*
G01*
X13675000Y-5639000D01*
G75*
G02*
X13697500Y-5616500I22500J0D01*
G01*
X13742500Y-5616500D01*
G75*
G02*
X13765000Y-5639000I0J-22500D01*
G01*
G37*
G36*
G01*
X10460500Y-4796500D02*
X10460500Y-4851500D01*
G75*
G02*
X10440500Y-4871500I-20000J0D01*
G01*
X10400500Y-4871500D01*
G75*
G02*
X10380500Y-4851500I0J20000D01*
G01*
X10380500Y-4796500D01*
G75*
G02*
X10400500Y-4776500I20000J0D01*
G01*
X10440500Y-4776500D01*
G75*
G02*
X10460500Y-4796500I0J-20000D01*
G01*
G37*
G36*
G01*
X10625500Y-4796500D02*
X10625500Y-4851500D01*
G75*
G02*
X10605500Y-4871500I-20000J0D01*
G01*
X10565500Y-4871500D01*
G75*
G02*
X10545500Y-4851500I0J20000D01*
G01*
X10545500Y-4796500D01*
G75*
G02*
X10565500Y-4776500I20000J0D01*
G01*
X10605500Y-4776500D01*
G75*
G02*
X10625500Y-4796500I0J-20000D01*
G01*
G37*
G36*
G01*
X10223000Y-5329000D02*
X10173000Y-5329000D01*
G75*
G02*
X10150500Y-5306500I0J22500D01*
G01*
X10150500Y-5261500D01*
G75*
G02*
X10173000Y-5239000I22500J0D01*
G01*
X10223000Y-5239000D01*
G75*
G02*
X10245500Y-5261500I0J-22500D01*
G01*
X10245500Y-5306500D01*
G75*
G02*
X10223000Y-5329000I-22500J0D01*
G01*
G37*
G36*
G01*
X10223000Y-5484000D02*
X10173000Y-5484000D01*
G75*
G02*
X10150500Y-5461500I0J22500D01*
G01*
X10150500Y-5416500D01*
G75*
G02*
X10173000Y-5394000I22500J0D01*
G01*
X10223000Y-5394000D01*
G75*
G02*
X10245500Y-5416500I0J-22500D01*
G01*
X10245500Y-5461500D01*
G75*
G02*
X10223000Y-5484000I-22500J0D01*
G01*
G37*
D12*
X9222500Y-6869000D03*
D13*
X9102500Y-7879000D03*
X10652500Y-7879000D03*
D14*
X10562500Y-6919000D03*
D15*
X9102500Y-6919000D03*
D12*
X9332500Y-6869000D03*
X9442500Y-6869000D03*
X9552500Y-6869000D03*
X9662500Y-6869000D03*
X9772500Y-6869000D03*
X9882500Y-6869000D03*
X9992500Y-6869000D03*
X10102500Y-6869000D03*
G36*
G01*
X13652500Y-6068375D02*
X13652500Y-6144625D01*
G75*
G02*
X13630625Y-6166500I-21875J0D01*
G01*
X13586875Y-6166500D01*
G75*
G02*
X13565000Y-6144625I0J21875D01*
G01*
X13565000Y-6068375D01*
G75*
G02*
X13586875Y-6046500I21875J0D01*
G01*
X13630625Y-6046500D01*
G75*
G02*
X13652500Y-6068375I0J-21875D01*
G01*
G37*
G36*
G01*
X13865000Y-6068375D02*
X13865000Y-6144625D01*
G75*
G02*
X13843125Y-6166500I-21875J0D01*
G01*
X13799375Y-6166500D01*
G75*
G02*
X13777500Y-6144625I0J21875D01*
G01*
X13777500Y-6068375D01*
G75*
G02*
X13799375Y-6046500I21875J0D01*
G01*
X13843125Y-6046500D01*
G75*
G02*
X13865000Y-6068375I0J-21875D01*
G01*
G37*
G36*
G01*
X14508000Y-5726500D02*
X14508000Y-5671500D01*
G75*
G02*
X14528000Y-5651500I20000J0D01*
G01*
X14568000Y-5651500D01*
G75*
G02*
X14588000Y-5671500I0J-20000D01*
G01*
X14588000Y-5726500D01*
G75*
G02*
X14568000Y-5746500I-20000J0D01*
G01*
X14528000Y-5746500D01*
G75*
G02*
X14508000Y-5726500I0J20000D01*
G01*
G37*
G36*
G01*
X14343000Y-5726500D02*
X14343000Y-5671500D01*
G75*
G02*
X14363000Y-5651500I20000J0D01*
G01*
X14403000Y-5651500D01*
G75*
G02*
X14423000Y-5671500I0J-20000D01*
G01*
X14423000Y-5726500D01*
G75*
G02*
X14403000Y-5746500I-20000J0D01*
G01*
X14363000Y-5746500D01*
G75*
G02*
X14343000Y-5726500I0J20000D01*
G01*
G37*
D16*
X12552500Y-6119000D03*
D17*
X13225000Y-6119000D03*
X13225000Y-6569000D03*
X12550000Y-6569000D03*
G36*
G01*
X10637500Y-6504000D02*
X10637500Y-6454000D01*
G75*
G02*
X10660000Y-6431500I22500J0D01*
G01*
X10705000Y-6431500D01*
G75*
G02*
X10727500Y-6454000I0J-22500D01*
G01*
X10727500Y-6504000D01*
G75*
G02*
X10705000Y-6526500I-22500J0D01*
G01*
X10660000Y-6526500D01*
G75*
G02*
X10637500Y-6504000I0J22500D01*
G01*
G37*
G36*
G01*
X10482500Y-6504000D02*
X10482500Y-6454000D01*
G75*
G02*
X10505000Y-6431500I22500J0D01*
G01*
X10550000Y-6431500D01*
G75*
G02*
X10572500Y-6454000I0J-22500D01*
G01*
X10572500Y-6504000D01*
G75*
G02*
X10550000Y-6526500I-22500J0D01*
G01*
X10505000Y-6526500D01*
G75*
G02*
X10482500Y-6504000I0J22500D01*
G01*
G37*
D18*
X10405000Y-6006500D03*
X10215000Y-6006500D03*
X10215000Y-5756500D03*
X10310000Y-5756500D03*
X10405000Y-5756500D03*
G36*
G01*
X10960000Y-6666500D02*
X11015000Y-6666500D01*
G75*
G02*
X11035000Y-6686500I0J-20000D01*
G01*
X11035000Y-6726500D01*
G75*
G02*
X11015000Y-6746500I-20000J0D01*
G01*
X10960000Y-6746500D01*
G75*
G02*
X10940000Y-6726500I0J20000D01*
G01*
X10940000Y-6686500D01*
G75*
G02*
X10960000Y-6666500I20000J0D01*
G01*
G37*
G36*
G01*
X10960000Y-6501500D02*
X11015000Y-6501500D01*
G75*
G02*
X11035000Y-6521500I0J-20000D01*
G01*
X11035000Y-6561500D01*
G75*
G02*
X11015000Y-6581500I-20000J0D01*
G01*
X10960000Y-6581500D01*
G75*
G02*
X10940000Y-6561500I0J20000D01*
G01*
X10940000Y-6521500D01*
G75*
G02*
X10960000Y-6501500I20000J0D01*
G01*
G37*
G36*
G01*
X13300000Y-5824000D02*
X13350000Y-5824000D01*
G75*
G02*
X13372500Y-5846500I0J-22500D01*
G01*
X13372500Y-5891500D01*
G75*
G02*
X13350000Y-5914000I-22500J0D01*
G01*
X13300000Y-5914000D01*
G75*
G02*
X13277500Y-5891500I0J22500D01*
G01*
X13277500Y-5846500D01*
G75*
G02*
X13300000Y-5824000I22500J0D01*
G01*
G37*
G36*
G01*
X13300000Y-5669000D02*
X13350000Y-5669000D01*
G75*
G02*
X13372500Y-5691500I0J-22500D01*
G01*
X13372500Y-5736500D01*
G75*
G02*
X13350000Y-5759000I-22500J0D01*
G01*
X13300000Y-5759000D01*
G75*
G02*
X13277500Y-5736500I0J22500D01*
G01*
X13277500Y-5691500D01*
G75*
G02*
X13300000Y-5669000I22500J0D01*
G01*
G37*
G36*
G01*
X11300500Y-5256500D02*
X11300500Y-5306500D01*
G75*
G02*
X11278000Y-5329000I-22500J0D01*
G01*
X11233000Y-5329000D01*
G75*
G02*
X11210500Y-5306500I0J22500D01*
G01*
X11210500Y-5256500D01*
G75*
G02*
X11233000Y-5234000I22500J0D01*
G01*
X11278000Y-5234000D01*
G75*
G02*
X11300500Y-5256500I0J-22500D01*
G01*
G37*
G36*
G01*
X11455500Y-5256500D02*
X11455500Y-5306500D01*
G75*
G02*
X11433000Y-5329000I-22500J0D01*
G01*
X11388000Y-5329000D01*
G75*
G02*
X11365500Y-5306500I0J22500D01*
G01*
X11365500Y-5256500D01*
G75*
G02*
X11388000Y-5234000I22500J0D01*
G01*
X11433000Y-5234000D01*
G75*
G02*
X11455500Y-5256500I0J-22500D01*
G01*
G37*
G36*
G01*
X11067500Y-7404000D02*
X11067500Y-7434000D01*
G75*
G02*
X11052500Y-7449000I-15000J0D01*
G01*
X10935000Y-7449000D01*
G75*
G02*
X10920000Y-7434000I0J15000D01*
G01*
X10920000Y-7404000D01*
G75*
G02*
X10935000Y-7389000I15000J0D01*
G01*
X11052500Y-7389000D01*
G75*
G02*
X11067500Y-7404000I0J-15000D01*
G01*
G37*
G36*
G01*
X11255000Y-7309000D02*
X11255000Y-7339000D01*
G75*
G02*
X11240000Y-7354000I-15000J0D01*
G01*
X11122500Y-7354000D01*
G75*
G02*
X11107500Y-7339000I0J15000D01*
G01*
X11107500Y-7309000D01*
G75*
G02*
X11122500Y-7294000I15000J0D01*
G01*
X11240000Y-7294000D01*
G75*
G02*
X11255000Y-7309000I0J-15000D01*
G01*
G37*
G36*
G01*
X11255000Y-7499000D02*
X11255000Y-7529000D01*
G75*
G02*
X11240000Y-7544000I-15000J0D01*
G01*
X11122500Y-7544000D01*
G75*
G02*
X11107500Y-7529000I0J15000D01*
G01*
X11107500Y-7499000D01*
G75*
G02*
X11122500Y-7484000I15000J0D01*
G01*
X11240000Y-7484000D01*
G75*
G02*
X11255000Y-7499000I0J-15000D01*
G01*
G37*
G36*
G01*
X9415500Y-5276500D02*
X9470500Y-5276500D01*
G75*
G02*
X9490500Y-5296500I0J-20000D01*
G01*
X9490500Y-5336500D01*
G75*
G02*
X9470500Y-5356500I-20000J0D01*
G01*
X9415500Y-5356500D01*
G75*
G02*
X9395500Y-5336500I0J20000D01*
G01*
X9395500Y-5296500D01*
G75*
G02*
X9415500Y-5276500I20000J0D01*
G01*
G37*
G36*
G01*
X9415500Y-5111500D02*
X9470500Y-5111500D01*
G75*
G02*
X9490500Y-5131500I0J-20000D01*
G01*
X9490500Y-5171500D01*
G75*
G02*
X9470500Y-5191500I-20000J0D01*
G01*
X9415500Y-5191500D01*
G75*
G02*
X9395500Y-5171500I0J20000D01*
G01*
X9395500Y-5131500D01*
G75*
G02*
X9415500Y-5111500I20000J0D01*
G01*
G37*
G36*
G01*
X11960500Y-7956500D02*
X11960500Y-7901500D01*
G75*
G02*
X11980500Y-7881500I20000J0D01*
G01*
X12020500Y-7881500D01*
G75*
G02*
X12040500Y-7901500I0J-20000D01*
G01*
X12040500Y-7956500D01*
G75*
G02*
X12020500Y-7976500I-20000J0D01*
G01*
X11980500Y-7976500D01*
G75*
G02*
X11960500Y-7956500I0J20000D01*
G01*
G37*
G36*
G01*
X11795500Y-7956500D02*
X11795500Y-7901500D01*
G75*
G02*
X11815500Y-7881500I20000J0D01*
G01*
X11855500Y-7881500D01*
G75*
G02*
X11875500Y-7901500I0J-20000D01*
G01*
X11875500Y-7956500D01*
G75*
G02*
X11855500Y-7976500I-20000J0D01*
G01*
X11815500Y-7976500D01*
G75*
G02*
X11795500Y-7956500I0J20000D01*
G01*
G37*
G36*
G01*
X14255500Y-5582000D02*
X14200500Y-5582000D01*
G75*
G02*
X14180500Y-5562000I0J20000D01*
G01*
X14180500Y-5522000D01*
G75*
G02*
X14200500Y-5502000I20000J0D01*
G01*
X14255500Y-5502000D01*
G75*
G02*
X14275500Y-5522000I0J-20000D01*
G01*
X14275500Y-5562000D01*
G75*
G02*
X14255500Y-5582000I-20000J0D01*
G01*
G37*
G36*
G01*
X14255500Y-5747000D02*
X14200500Y-5747000D01*
G75*
G02*
X14180500Y-5727000I0J20000D01*
G01*
X14180500Y-5687000D01*
G75*
G02*
X14200500Y-5667000I20000J0D01*
G01*
X14255500Y-5667000D01*
G75*
G02*
X14275500Y-5687000I0J-20000D01*
G01*
X14275500Y-5727000D01*
G75*
G02*
X14255500Y-5747000I-20000J0D01*
G01*
G37*
G36*
G01*
X8862500Y-6024000D02*
X8862500Y-5969000D01*
G75*
G02*
X8882500Y-5949000I20000J0D01*
G01*
X8922500Y-5949000D01*
G75*
G02*
X8942500Y-5969000I0J-20000D01*
G01*
X8942500Y-6024000D01*
G75*
G02*
X8922500Y-6044000I-20000J0D01*
G01*
X8882500Y-6044000D01*
G75*
G02*
X8862500Y-6024000I0J20000D01*
G01*
G37*
G36*
G01*
X8697500Y-6024000D02*
X8697500Y-5969000D01*
G75*
G02*
X8717500Y-5949000I20000J0D01*
G01*
X8757500Y-5949000D01*
G75*
G02*
X8777500Y-5969000I0J-20000D01*
G01*
X8777500Y-6024000D01*
G75*
G02*
X8757500Y-6044000I-20000J0D01*
G01*
X8717500Y-6044000D01*
G75*
G02*
X8697500Y-6024000I0J20000D01*
G01*
G37*
D19*
X12665500Y-7679000D03*
D20*
X12665500Y-7006500D03*
X13115500Y-7681500D03*
X13115500Y-7006500D03*
G36*
G01*
X8782500Y-6514000D02*
X8782500Y-6564000D01*
G75*
G02*
X8760000Y-6586500I-22500J0D01*
G01*
X8715000Y-6586500D01*
G75*
G02*
X8692500Y-6564000I0J22500D01*
G01*
X8692500Y-6514000D01*
G75*
G02*
X8715000Y-6491500I22500J0D01*
G01*
X8760000Y-6491500D01*
G75*
G02*
X8782500Y-6514000I0J-22500D01*
G01*
G37*
G36*
G01*
X8937500Y-6514000D02*
X8937500Y-6564000D01*
G75*
G02*
X8915000Y-6586500I-22500J0D01*
G01*
X8870000Y-6586500D01*
G75*
G02*
X8847500Y-6564000I0J22500D01*
G01*
X8847500Y-6514000D01*
G75*
G02*
X8870000Y-6491500I22500J0D01*
G01*
X8915000Y-6491500D01*
G75*
G02*
X8937500Y-6514000I0J-22500D01*
G01*
G37*
G36*
G01*
X11675000Y-5746500D02*
X11675000Y-5691500D01*
G75*
G02*
X11695000Y-5671500I20000J0D01*
G01*
X11735000Y-5671500D01*
G75*
G02*
X11755000Y-5691500I0J-20000D01*
G01*
X11755000Y-5746500D01*
G75*
G02*
X11735000Y-5766500I-20000J0D01*
G01*
X11695000Y-5766500D01*
G75*
G02*
X11675000Y-5746500I0J20000D01*
G01*
G37*
G36*
G01*
X11510000Y-5746500D02*
X11510000Y-5691500D01*
G75*
G02*
X11530000Y-5671500I20000J0D01*
G01*
X11570000Y-5671500D01*
G75*
G02*
X11590000Y-5691500I0J-20000D01*
G01*
X11590000Y-5746500D01*
G75*
G02*
X11570000Y-5766500I-20000J0D01*
G01*
X11530000Y-5766500D01*
G75*
G02*
X11510000Y-5746500I0J20000D01*
G01*
G37*
D21*
X9165000Y-6516500D03*
X9165000Y-6451500D03*
X9165000Y-6386500D03*
X9165000Y-6321500D03*
X9165000Y-6256500D03*
X9165000Y-6191500D03*
X9165000Y-6126500D03*
X9725000Y-6126500D03*
X9725000Y-6191500D03*
X9725000Y-6256500D03*
X9725000Y-6321500D03*
X9725000Y-6386500D03*
X9725000Y-6451500D03*
X9725000Y-6516500D03*
G36*
G01*
X9093000Y-5574000D02*
X9093000Y-5629000D01*
G75*
G02*
X9073000Y-5649000I-20000J0D01*
G01*
X9033000Y-5649000D01*
G75*
G02*
X9013000Y-5629000I0J20000D01*
G01*
X9013000Y-5574000D01*
G75*
G02*
X9033000Y-5554000I20000J0D01*
G01*
X9073000Y-5554000D01*
G75*
G02*
X9093000Y-5574000I0J-20000D01*
G01*
G37*
G36*
G01*
X9258000Y-5574000D02*
X9258000Y-5629000D01*
G75*
G02*
X9238000Y-5649000I-20000J0D01*
G01*
X9198000Y-5649000D01*
G75*
G02*
X9178000Y-5629000I0J20000D01*
G01*
X9178000Y-5574000D01*
G75*
G02*
X9198000Y-5554000I20000J0D01*
G01*
X9238000Y-5554000D01*
G75*
G02*
X9258000Y-5574000I0J-20000D01*
G01*
G37*
G36*
G01*
X9093000Y-5309000D02*
X9093000Y-5364000D01*
G75*
G02*
X9073000Y-5384000I-20000J0D01*
G01*
X9033000Y-5384000D01*
G75*
G02*
X9013000Y-5364000I0J20000D01*
G01*
X9013000Y-5309000D01*
G75*
G02*
X9033000Y-5289000I20000J0D01*
G01*
X9073000Y-5289000D01*
G75*
G02*
X9093000Y-5309000I0J-20000D01*
G01*
G37*
G36*
G01*
X9258000Y-5309000D02*
X9258000Y-5364000D01*
G75*
G02*
X9238000Y-5384000I-20000J0D01*
G01*
X9198000Y-5384000D01*
G75*
G02*
X9178000Y-5364000I0J20000D01*
G01*
X9178000Y-5309000D01*
G75*
G02*
X9198000Y-5289000I20000J0D01*
G01*
X9238000Y-5289000D01*
G75*
G02*
X9258000Y-5309000I0J-20000D01*
G01*
G37*
G36*
G01*
X8750000Y-7269000D02*
X8750000Y-7219000D01*
G75*
G02*
X8772500Y-7196500I22500J0D01*
G01*
X8817500Y-7196500D01*
G75*
G02*
X8840000Y-7219000I0J-22500D01*
G01*
X8840000Y-7269000D01*
G75*
G02*
X8817500Y-7291500I-22500J0D01*
G01*
X8772500Y-7291500D01*
G75*
G02*
X8750000Y-7269000I0J22500D01*
G01*
G37*
G36*
G01*
X8595000Y-7269000D02*
X8595000Y-7219000D01*
G75*
G02*
X8617500Y-7196500I22500J0D01*
G01*
X8662500Y-7196500D01*
G75*
G02*
X8685000Y-7219000I0J-22500D01*
G01*
X8685000Y-7269000D01*
G75*
G02*
X8662500Y-7291500I-22500J0D01*
G01*
X8617500Y-7291500D01*
G75*
G02*
X8595000Y-7269000I0J22500D01*
G01*
G37*
G36*
G01*
X14485500Y-6991500D02*
X14485500Y-6936500D01*
G75*
G02*
X14505500Y-6916500I20000J0D01*
G01*
X14545500Y-6916500D01*
G75*
G02*
X14565500Y-6936500I0J-20000D01*
G01*
X14565500Y-6991500D01*
G75*
G02*
X14545500Y-7011500I-20000J0D01*
G01*
X14505500Y-7011500D01*
G75*
G02*
X14485500Y-6991500I0J20000D01*
G01*
G37*
G36*
G01*
X14320500Y-6991500D02*
X14320500Y-6936500D01*
G75*
G02*
X14340500Y-6916500I20000J0D01*
G01*
X14380500Y-6916500D01*
G75*
G02*
X14400500Y-6936500I0J-20000D01*
G01*
X14400500Y-6991500D01*
G75*
G02*
X14380500Y-7011500I-20000J0D01*
G01*
X14340500Y-7011500D01*
G75*
G02*
X14320500Y-6991500I0J20000D01*
G01*
G37*
G36*
G01*
X9932500Y-4909000D02*
X9932500Y-4854000D01*
G75*
G02*
X9952500Y-4834000I20000J0D01*
G01*
X9992500Y-4834000D01*
G75*
G02*
X10012500Y-4854000I0J-20000D01*
G01*
X10012500Y-4909000D01*
G75*
G02*
X9992500Y-4929000I-20000J0D01*
G01*
X9952500Y-4929000D01*
G75*
G02*
X9932500Y-4909000I0J20000D01*
G01*
G37*
G36*
G01*
X9767500Y-4909000D02*
X9767500Y-4854000D01*
G75*
G02*
X9787500Y-4834000I20000J0D01*
G01*
X9827500Y-4834000D01*
G75*
G02*
X9847500Y-4854000I0J-20000D01*
G01*
X9847500Y-4909000D01*
G75*
G02*
X9827500Y-4929000I-20000J0D01*
G01*
X9787500Y-4929000D01*
G75*
G02*
X9767500Y-4909000I0J20000D01*
G01*
G37*
G36*
G01*
X13337500Y-6919000D02*
X13387500Y-6919000D01*
G75*
G02*
X13410000Y-6941500I0J-22500D01*
G01*
X13410000Y-6986500D01*
G75*
G02*
X13387500Y-7009000I-22500J0D01*
G01*
X13337500Y-7009000D01*
G75*
G02*
X13315000Y-6986500I0J22500D01*
G01*
X13315000Y-6941500D01*
G75*
G02*
X13337500Y-6919000I22500J0D01*
G01*
G37*
G36*
G01*
X13337500Y-6764000D02*
X13387500Y-6764000D01*
G75*
G02*
X13410000Y-6786500I0J-22500D01*
G01*
X13410000Y-6831500D01*
G75*
G02*
X13387500Y-6854000I-22500J0D01*
G01*
X13337500Y-6854000D01*
G75*
G02*
X13315000Y-6831500I0J22500D01*
G01*
X13315000Y-6786500D01*
G75*
G02*
X13337500Y-6764000I22500J0D01*
G01*
G37*
G36*
G01*
X14182500Y-6191500D02*
X14182500Y-6136500D01*
G75*
G02*
X14202500Y-6116500I20000J0D01*
G01*
X14242500Y-6116500D01*
G75*
G02*
X14262500Y-6136500I0J-20000D01*
G01*
X14262500Y-6191500D01*
G75*
G02*
X14242500Y-6211500I-20000J0D01*
G01*
X14202500Y-6211500D01*
G75*
G02*
X14182500Y-6191500I0J20000D01*
G01*
G37*
G36*
G01*
X14017500Y-6191500D02*
X14017500Y-6136500D01*
G75*
G02*
X14037500Y-6116500I20000J0D01*
G01*
X14077500Y-6116500D01*
G75*
G02*
X14097500Y-6136500I0J-20000D01*
G01*
X14097500Y-6191500D01*
G75*
G02*
X14077500Y-6211500I-20000J0D01*
G01*
X14037500Y-6211500D01*
G75*
G02*
X14017500Y-6191500I0J20000D01*
G01*
G37*
G36*
G01*
X10347500Y-5616500D02*
X10347500Y-5561500D01*
G75*
G02*
X10367500Y-5541500I20000J0D01*
G01*
X10407500Y-5541500D01*
G75*
G02*
X10427500Y-5561500I0J-20000D01*
G01*
X10427500Y-5616500D01*
G75*
G02*
X10407500Y-5636500I-20000J0D01*
G01*
X10367500Y-5636500D01*
G75*
G02*
X10347500Y-5616500I0J20000D01*
G01*
G37*
G36*
G01*
X10182500Y-5616500D02*
X10182500Y-5561500D01*
G75*
G02*
X10202500Y-5541500I20000J0D01*
G01*
X10242500Y-5541500D01*
G75*
G02*
X10262500Y-5561500I0J-20000D01*
G01*
X10262500Y-5616500D01*
G75*
G02*
X10242500Y-5636500I-20000J0D01*
G01*
X10202500Y-5636500D01*
G75*
G02*
X10182500Y-5616500I0J20000D01*
G01*
G37*
G36*
G01*
X10897500Y-5866500D02*
X10952500Y-5866500D01*
G75*
G02*
X10972500Y-5886500I0J-20000D01*
G01*
X10972500Y-5926500D01*
G75*
G02*
X10952500Y-5946500I-20000J0D01*
G01*
X10897500Y-5946500D01*
G75*
G02*
X10877500Y-5926500I0J20000D01*
G01*
X10877500Y-5886500D01*
G75*
G02*
X10897500Y-5866500I20000J0D01*
G01*
G37*
G36*
G01*
X10897500Y-5701500D02*
X10952500Y-5701500D01*
G75*
G02*
X10972500Y-5721500I0J-20000D01*
G01*
X10972500Y-5761500D01*
G75*
G02*
X10952500Y-5781500I-20000J0D01*
G01*
X10897500Y-5781500D01*
G75*
G02*
X10877500Y-5761500I0J20000D01*
G01*
X10877500Y-5721500D01*
G75*
G02*
X10897500Y-5701500I20000J0D01*
G01*
G37*
G36*
G01*
X11953000Y-4821500D02*
X11903000Y-4821500D01*
G75*
G02*
X11880500Y-4799000I0J22500D01*
G01*
X11880500Y-4754000D01*
G75*
G02*
X11903000Y-4731500I22500J0D01*
G01*
X11953000Y-4731500D01*
G75*
G02*
X11975500Y-4754000I0J-22500D01*
G01*
X11975500Y-4799000D01*
G75*
G02*
X11953000Y-4821500I-22500J0D01*
G01*
G37*
G36*
G01*
X11953000Y-4976500D02*
X11903000Y-4976500D01*
G75*
G02*
X11880500Y-4954000I0J22500D01*
G01*
X11880500Y-4909000D01*
G75*
G02*
X11903000Y-4886500I22500J0D01*
G01*
X11953000Y-4886500D01*
G75*
G02*
X11975500Y-4909000I0J-22500D01*
G01*
X11975500Y-4954000D01*
G75*
G02*
X11953000Y-4976500I-22500J0D01*
G01*
G37*
G36*
G01*
X10637500Y-6199000D02*
X10637500Y-6149000D01*
G75*
G02*
X10660000Y-6126500I22500J0D01*
G01*
X10705000Y-6126500D01*
G75*
G02*
X10727500Y-6149000I0J-22500D01*
G01*
X10727500Y-6199000D01*
G75*
G02*
X10705000Y-6221500I-22500J0D01*
G01*
X10660000Y-6221500D01*
G75*
G02*
X10637500Y-6199000I0J22500D01*
G01*
G37*
G36*
G01*
X10482500Y-6199000D02*
X10482500Y-6149000D01*
G75*
G02*
X10505000Y-6126500I22500J0D01*
G01*
X10550000Y-6126500D01*
G75*
G02*
X10572500Y-6149000I0J-22500D01*
G01*
X10572500Y-6199000D01*
G75*
G02*
X10550000Y-6221500I-22500J0D01*
G01*
X10505000Y-6221500D01*
G75*
G02*
X10482500Y-6199000I0J22500D01*
G01*
G37*
G36*
G01*
X11483905Y-6905250D02*
X11483905Y-6975250D01*
G75*
G02*
X11477655Y-6981500I-6250J0D01*
G01*
X11465155Y-6981500D01*
G75*
G02*
X11458905Y-6975250I0J6250D01*
G01*
X11458905Y-6905250D01*
G75*
G02*
X11465155Y-6899000I6250J0D01*
G01*
X11477655Y-6899000D01*
G75*
G02*
X11483905Y-6905250I0J-6250D01*
G01*
G37*
G36*
G01*
X11433905Y-6905250D02*
X11433905Y-6975250D01*
G75*
G02*
X11427655Y-6981500I-6250J0D01*
G01*
X11415155Y-6981500D01*
G75*
G02*
X11408905Y-6975250I0J6250D01*
G01*
X11408905Y-6905250D01*
G75*
G02*
X11415155Y-6899000I6250J0D01*
G01*
X11427655Y-6899000D01*
G75*
G02*
X11433905Y-6905250I0J-6250D01*
G01*
G37*
G36*
G01*
X11383905Y-6905250D02*
X11383905Y-6975250D01*
G75*
G02*
X11377655Y-6981500I-6250J0D01*
G01*
X11365155Y-6981500D01*
G75*
G02*
X11358905Y-6975250I0J6250D01*
G01*
X11358905Y-6905250D01*
G75*
G02*
X11365155Y-6899000I6250J0D01*
G01*
X11377655Y-6899000D01*
G75*
G02*
X11383905Y-6905250I0J-6250D01*
G01*
G37*
G36*
G01*
X11333905Y-6905250D02*
X11333905Y-6975250D01*
G75*
G02*
X11327655Y-6981500I-6250J0D01*
G01*
X11315155Y-6981500D01*
G75*
G02*
X11308905Y-6975250I0J6250D01*
G01*
X11308905Y-6905250D01*
G75*
G02*
X11315155Y-6899000I6250J0D01*
G01*
X11327655Y-6899000D01*
G75*
G02*
X11333905Y-6905250I0J-6250D01*
G01*
G37*
G36*
G01*
X11283905Y-6905250D02*
X11283905Y-6975250D01*
G75*
G02*
X11277655Y-6981500I-6250J0D01*
G01*
X11265155Y-6981500D01*
G75*
G02*
X11258905Y-6975250I0J6250D01*
G01*
X11258905Y-6905250D01*
G75*
G02*
X11265155Y-6899000I6250J0D01*
G01*
X11277655Y-6899000D01*
G75*
G02*
X11283905Y-6905250I0J-6250D01*
G01*
G37*
G36*
G01*
X11233905Y-6905250D02*
X11233905Y-6975250D01*
G75*
G02*
X11227655Y-6981500I-6250J0D01*
G01*
X11215155Y-6981500D01*
G75*
G02*
X11208905Y-6975250I0J6250D01*
G01*
X11208905Y-6905250D01*
G75*
G02*
X11215155Y-6899000I6250J0D01*
G01*
X11227655Y-6899000D01*
G75*
G02*
X11233905Y-6905250I0J-6250D01*
G01*
G37*
G36*
G01*
X11193905Y-6865250D02*
X11193905Y-6877750D01*
G75*
G02*
X11187655Y-6884000I-6250J0D01*
G01*
X11117656Y-6884000D01*
G75*
G02*
X11111406Y-6877750I0J6250D01*
G01*
X11111406Y-6865250D01*
G75*
G02*
X11117656Y-6859000I6250J0D01*
G01*
X11187655Y-6859000D01*
G75*
G02*
X11193905Y-6865250I0J-6250D01*
G01*
G37*
G36*
G01*
X11193905Y-6815250D02*
X11193905Y-6827750D01*
G75*
G02*
X11187655Y-6834000I-6250J0D01*
G01*
X11117656Y-6834000D01*
G75*
G02*
X11111406Y-6827750I0J6250D01*
G01*
X11111406Y-6815250D01*
G75*
G02*
X11117656Y-6809000I6250J0D01*
G01*
X11187655Y-6809000D01*
G75*
G02*
X11193905Y-6815250I0J-6250D01*
G01*
G37*
G36*
G01*
X11193905Y-6765250D02*
X11193905Y-6777750D01*
G75*
G02*
X11187655Y-6784000I-6250J0D01*
G01*
X11117656Y-6784000D01*
G75*
G02*
X11111406Y-6777750I0J6250D01*
G01*
X11111406Y-6765250D01*
G75*
G02*
X11117656Y-6759000I6250J0D01*
G01*
X11187655Y-6759000D01*
G75*
G02*
X11193905Y-6765250I0J-6250D01*
G01*
G37*
G36*
G01*
X11193905Y-6715250D02*
X11193905Y-6727750D01*
G75*
G02*
X11187655Y-6734000I-6250J0D01*
G01*
X11117656Y-6734000D01*
G75*
G02*
X11111406Y-6727750I0J6250D01*
G01*
X11111406Y-6715250D01*
G75*
G02*
X11117656Y-6709000I6250J0D01*
G01*
X11187655Y-6709000D01*
G75*
G02*
X11193905Y-6715250I0J-6250D01*
G01*
G37*
G36*
G01*
X11193905Y-6665250D02*
X11193905Y-6677750D01*
G75*
G02*
X11187655Y-6684000I-6250J0D01*
G01*
X11117656Y-6684000D01*
G75*
G02*
X11111406Y-6677750I0J6250D01*
G01*
X11111406Y-6665250D01*
G75*
G02*
X11117656Y-6659000I6250J0D01*
G01*
X11187655Y-6659000D01*
G75*
G02*
X11193905Y-6665250I0J-6250D01*
G01*
G37*
G36*
G01*
X11193905Y-6615250D02*
X11193905Y-6627750D01*
G75*
G02*
X11187655Y-6634000I-6250J0D01*
G01*
X11117656Y-6634000D01*
G75*
G02*
X11111406Y-6627750I0J6250D01*
G01*
X11111406Y-6615250D01*
G75*
G02*
X11117656Y-6609000I6250J0D01*
G01*
X11187655Y-6609000D01*
G75*
G02*
X11193905Y-6615250I0J-6250D01*
G01*
G37*
G36*
G01*
X11233905Y-6517750D02*
X11233905Y-6587750D01*
G75*
G02*
X11227655Y-6594000I-6250J0D01*
G01*
X11215155Y-6594000D01*
G75*
G02*
X11208905Y-6587750I0J6250D01*
G01*
X11208905Y-6517750D01*
G75*
G02*
X11215155Y-6511500I6250J0D01*
G01*
X11227655Y-6511500D01*
G75*
G02*
X11233905Y-6517750I0J-6250D01*
G01*
G37*
G36*
G01*
X11283905Y-6517750D02*
X11283905Y-6587750D01*
G75*
G02*
X11277655Y-6594000I-6250J0D01*
G01*
X11265155Y-6594000D01*
G75*
G02*
X11258905Y-6587750I0J6250D01*
G01*
X11258905Y-6517750D01*
G75*
G02*
X11265155Y-6511500I6250J0D01*
G01*
X11277655Y-6511500D01*
G75*
G02*
X11283905Y-6517750I0J-6250D01*
G01*
G37*
G36*
G01*
X11333905Y-6517750D02*
X11333905Y-6587750D01*
G75*
G02*
X11327655Y-6594000I-6250J0D01*
G01*
X11315155Y-6594000D01*
G75*
G02*
X11308905Y-6587750I0J6250D01*
G01*
X11308905Y-6517750D01*
G75*
G02*
X11315155Y-6511500I6250J0D01*
G01*
X11327655Y-6511500D01*
G75*
G02*
X11333905Y-6517750I0J-6250D01*
G01*
G37*
G36*
G01*
X11383905Y-6517750D02*
X11383905Y-6587750D01*
G75*
G02*
X11377655Y-6594000I-6250J0D01*
G01*
X11365155Y-6594000D01*
G75*
G02*
X11358905Y-6587750I0J6250D01*
G01*
X11358905Y-6517750D01*
G75*
G02*
X11365155Y-6511500I6250J0D01*
G01*
X11377655Y-6511500D01*
G75*
G02*
X11383905Y-6517750I0J-6250D01*
G01*
G37*
G36*
G01*
X11433905Y-6517750D02*
X11433905Y-6587750D01*
G75*
G02*
X11427655Y-6594000I-6250J0D01*
G01*
X11415155Y-6594000D01*
G75*
G02*
X11408905Y-6587750I0J6250D01*
G01*
X11408905Y-6517750D01*
G75*
G02*
X11415155Y-6511500I6250J0D01*
G01*
X11427655Y-6511500D01*
G75*
G02*
X11433905Y-6517750I0J-6250D01*
G01*
G37*
G36*
G01*
X11483905Y-6517750D02*
X11483905Y-6587750D01*
G75*
G02*
X11477655Y-6594000I-6250J0D01*
G01*
X11465155Y-6594000D01*
G75*
G02*
X11458905Y-6587750I0J6250D01*
G01*
X11458905Y-6517750D01*
G75*
G02*
X11465155Y-6511500I6250J0D01*
G01*
X11477655Y-6511500D01*
G75*
G02*
X11483905Y-6517750I0J-6250D01*
G01*
G37*
G36*
G01*
X11581405Y-6615250D02*
X11581405Y-6627750D01*
G75*
G02*
X11575155Y-6634000I-6250J0D01*
G01*
X11505155Y-6634000D01*
G75*
G02*
X11498905Y-6627750I0J6250D01*
G01*
X11498905Y-6615250D01*
G75*
G02*
X11505155Y-6609000I6250J0D01*
G01*
X11575155Y-6609000D01*
G75*
G02*
X11581405Y-6615250I0J-6250D01*
G01*
G37*
G36*
G01*
X11581405Y-6665250D02*
X11581405Y-6677750D01*
G75*
G02*
X11575155Y-6684000I-6250J0D01*
G01*
X11505155Y-6684000D01*
G75*
G02*
X11498905Y-6677750I0J6250D01*
G01*
X11498905Y-6665250D01*
G75*
G02*
X11505155Y-6659000I6250J0D01*
G01*
X11575155Y-6659000D01*
G75*
G02*
X11581405Y-6665250I0J-6250D01*
G01*
G37*
G36*
G01*
X11581405Y-6715250D02*
X11581405Y-6727750D01*
G75*
G02*
X11575155Y-6734000I-6250J0D01*
G01*
X11505155Y-6734000D01*
G75*
G02*
X11498905Y-6727750I0J6250D01*
G01*
X11498905Y-6715250D01*
G75*
G02*
X11505155Y-6709000I6250J0D01*
G01*
X11575155Y-6709000D01*
G75*
G02*
X11581405Y-6715250I0J-6250D01*
G01*
G37*
G36*
G01*
X11581405Y-6765250D02*
X11581405Y-6777750D01*
G75*
G02*
X11575155Y-6784000I-6250J0D01*
G01*
X11505155Y-6784000D01*
G75*
G02*
X11498905Y-6777750I0J6250D01*
G01*
X11498905Y-6765250D01*
G75*
G02*
X11505155Y-6759000I6250J0D01*
G01*
X11575155Y-6759000D01*
G75*
G02*
X11581405Y-6765250I0J-6250D01*
G01*
G37*
G36*
G01*
X11581405Y-6815250D02*
X11581405Y-6827750D01*
G75*
G02*
X11575155Y-6834000I-6250J0D01*
G01*
X11505155Y-6834000D01*
G75*
G02*
X11498905Y-6827750I0J6250D01*
G01*
X11498905Y-6815250D01*
G75*
G02*
X11505155Y-6809000I6250J0D01*
G01*
X11575155Y-6809000D01*
G75*
G02*
X11581405Y-6815250I0J-6250D01*
G01*
G37*
G36*
G01*
X11581405Y-6865250D02*
X11581405Y-6877750D01*
G75*
G02*
X11575155Y-6884000I-6250J0D01*
G01*
X11505155Y-6884000D01*
G75*
G02*
X11498905Y-6877750I0J6250D01*
G01*
X11498905Y-6865250D01*
G75*
G02*
X11505155Y-6859000I6250J0D01*
G01*
X11575155Y-6859000D01*
G75*
G02*
X11581405Y-6865250I0J-6250D01*
G01*
G37*
G36*
G01*
X11463905Y-6784000D02*
X11463905Y-6839000D01*
G75*
G02*
X11438905Y-6864000I-25000J0D01*
G01*
X11383905Y-6864000D01*
G75*
G02*
X11358905Y-6839000I0J25000D01*
G01*
X11358905Y-6784000D01*
G75*
G02*
X11383905Y-6759000I25000J0D01*
G01*
X11438905Y-6759000D01*
G75*
G02*
X11463905Y-6784000I0J-25000D01*
G01*
G37*
G36*
G01*
X11333905Y-6654000D02*
X11333905Y-6709000D01*
G75*
G02*
X11308905Y-6734000I-25000J0D01*
G01*
X11253905Y-6734000D01*
G75*
G02*
X11228905Y-6709000I0J25000D01*
G01*
X11228905Y-6654000D01*
G75*
G02*
X11253905Y-6629000I25000J0D01*
G01*
X11308905Y-6629000D01*
G75*
G02*
X11333905Y-6654000I0J-25000D01*
G01*
G37*
G36*
G01*
X11463905Y-6654000D02*
X11463905Y-6709000D01*
G75*
G02*
X11438905Y-6734000I-25000J0D01*
G01*
X11383905Y-6734000D01*
G75*
G02*
X11358905Y-6709000I0J25000D01*
G01*
X11358905Y-6654000D01*
G75*
G02*
X11383905Y-6629000I25000J0D01*
G01*
X11438905Y-6629000D01*
G75*
G02*
X11463905Y-6654000I0J-25000D01*
G01*
G37*
G36*
G01*
X11333905Y-6784000D02*
X11333905Y-6839000D01*
G75*
G02*
X11308905Y-6864000I-25000J0D01*
G01*
X11253905Y-6864000D01*
G75*
G02*
X11228905Y-6839000I0J25000D01*
G01*
X11228905Y-6784000D01*
G75*
G02*
X11253905Y-6759000I25000J0D01*
G01*
X11308905Y-6759000D01*
G75*
G02*
X11333905Y-6784000I0J-25000D01*
G01*
G37*
D22*
X9810000Y-4544500D03*
X9450000Y-4544500D03*
X9810000Y-4688500D03*
X9450000Y-4688500D03*
G36*
G01*
X10997656Y-6254000D02*
X10942656Y-6254000D01*
G75*
G02*
X10922656Y-6234000I0J20000D01*
G01*
X10922656Y-6194000D01*
G75*
G02*
X10942656Y-6174000I20000J0D01*
G01*
X10997656Y-6174000D01*
G75*
G02*
X11017656Y-6194000I0J-20000D01*
G01*
X11017656Y-6234000D01*
G75*
G02*
X10997656Y-6254000I-20000J0D01*
G01*
G37*
G36*
G01*
X10997656Y-6419000D02*
X10942656Y-6419000D01*
G75*
G02*
X10922656Y-6399000I0J20000D01*
G01*
X10922656Y-6359000D01*
G75*
G02*
X10942656Y-6339000I20000J0D01*
G01*
X10997656Y-6339000D01*
G75*
G02*
X11017656Y-6359000I0J-20000D01*
G01*
X11017656Y-6399000D01*
G75*
G02*
X10997656Y-6419000I-20000J0D01*
G01*
G37*
G36*
G01*
X11312500Y-4946500D02*
X11312500Y-5001500D01*
G75*
G02*
X11292500Y-5021500I-20000J0D01*
G01*
X11252500Y-5021500D01*
G75*
G02*
X11232500Y-5001500I0J20000D01*
G01*
X11232500Y-4946500D01*
G75*
G02*
X11252500Y-4926500I20000J0D01*
G01*
X11292500Y-4926500D01*
G75*
G02*
X11312500Y-4946500I0J-20000D01*
G01*
G37*
G36*
G01*
X11477500Y-4946500D02*
X11477500Y-5001500D01*
G75*
G02*
X11457500Y-5021500I-20000J0D01*
G01*
X11417500Y-5021500D01*
G75*
G02*
X11397500Y-5001500I0J20000D01*
G01*
X11397500Y-4946500D01*
G75*
G02*
X11417500Y-4926500I20000J0D01*
G01*
X11457500Y-4926500D01*
G75*
G02*
X11477500Y-4946500I0J-20000D01*
G01*
G37*
G36*
G01*
X13340500Y-7456500D02*
X13290500Y-7456500D01*
G75*
G02*
X13268000Y-7434000I0J22500D01*
G01*
X13268000Y-7389000D01*
G75*
G02*
X13290500Y-7366500I22500J0D01*
G01*
X13340500Y-7366500D01*
G75*
G02*
X13363000Y-7389000I0J-22500D01*
G01*
X13363000Y-7434000D01*
G75*
G02*
X13340500Y-7456500I-22500J0D01*
G01*
G37*
G36*
G01*
X13340500Y-7611500D02*
X13290500Y-7611500D01*
G75*
G02*
X13268000Y-7589000I0J22500D01*
G01*
X13268000Y-7544000D01*
G75*
G02*
X13290500Y-7521500I22500J0D01*
G01*
X13340500Y-7521500D01*
G75*
G02*
X13363000Y-7544000I0J-22500D01*
G01*
X13363000Y-7589000D01*
G75*
G02*
X13340500Y-7611500I-22500J0D01*
G01*
G37*
G36*
G01*
X14182500Y-6536500D02*
X14182500Y-6481500D01*
G75*
G02*
X14202500Y-6461500I20000J0D01*
G01*
X14242500Y-6461500D01*
G75*
G02*
X14262500Y-6481500I0J-20000D01*
G01*
X14262500Y-6536500D01*
G75*
G02*
X14242500Y-6556500I-20000J0D01*
G01*
X14202500Y-6556500D01*
G75*
G02*
X14182500Y-6536500I0J20000D01*
G01*
G37*
G36*
G01*
X14017500Y-6536500D02*
X14017500Y-6481500D01*
G75*
G02*
X14037500Y-6461500I20000J0D01*
G01*
X14077500Y-6461500D01*
G75*
G02*
X14097500Y-6481500I0J-20000D01*
G01*
X14097500Y-6536500D01*
G75*
G02*
X14077500Y-6556500I-20000J0D01*
G01*
X14037500Y-6556500D01*
G75*
G02*
X14017500Y-6536500I0J20000D01*
G01*
G37*
G36*
G01*
X9777500Y-5856500D02*
X9832500Y-5856500D01*
G75*
G02*
X9852500Y-5876500I0J-20000D01*
G01*
X9852500Y-5916500D01*
G75*
G02*
X9832500Y-5936500I-20000J0D01*
G01*
X9777500Y-5936500D01*
G75*
G02*
X9757500Y-5916500I0J20000D01*
G01*
X9757500Y-5876500D01*
G75*
G02*
X9777500Y-5856500I20000J0D01*
G01*
G37*
G36*
G01*
X9777500Y-5691500D02*
X9832500Y-5691500D01*
G75*
G02*
X9852500Y-5711500I0J-20000D01*
G01*
X9852500Y-5751500D01*
G75*
G02*
X9832500Y-5771500I-20000J0D01*
G01*
X9777500Y-5771500D01*
G75*
G02*
X9757500Y-5751500I0J20000D01*
G01*
X9757500Y-5711500D01*
G75*
G02*
X9777500Y-5691500I20000J0D01*
G01*
G37*
G36*
G01*
X11635000Y-4836500D02*
X11580000Y-4836500D01*
G75*
G02*
X11560000Y-4816500I0J20000D01*
G01*
X11560000Y-4776500D01*
G75*
G02*
X11580000Y-4756500I20000J0D01*
G01*
X11635000Y-4756500D01*
G75*
G02*
X11655000Y-4776500I0J-20000D01*
G01*
X11655000Y-4816500D01*
G75*
G02*
X11635000Y-4836500I-20000J0D01*
G01*
G37*
G36*
G01*
X11635000Y-5001500D02*
X11580000Y-5001500D01*
G75*
G02*
X11560000Y-4981500I0J20000D01*
G01*
X11560000Y-4941500D01*
G75*
G02*
X11580000Y-4921500I20000J0D01*
G01*
X11635000Y-4921500D01*
G75*
G02*
X11655000Y-4941500I0J-20000D01*
G01*
X11655000Y-4981500D01*
G75*
G02*
X11635000Y-5001500I-20000J0D01*
G01*
G37*
G36*
G01*
X10422500Y-5146500D02*
X10422500Y-5201500D01*
G75*
G02*
X10402500Y-5221500I-20000J0D01*
G01*
X10362500Y-5221500D01*
G75*
G02*
X10342500Y-5201500I0J20000D01*
G01*
X10342500Y-5146500D01*
G75*
G02*
X10362500Y-5126500I20000J0D01*
G01*
X10402500Y-5126500D01*
G75*
G02*
X10422500Y-5146500I0J-20000D01*
G01*
G37*
G36*
G01*
X10587500Y-5146500D02*
X10587500Y-5201500D01*
G75*
G02*
X10567500Y-5221500I-20000J0D01*
G01*
X10527500Y-5221500D01*
G75*
G02*
X10507500Y-5201500I0J20000D01*
G01*
X10507500Y-5146500D01*
G75*
G02*
X10527500Y-5126500I20000J0D01*
G01*
X10567500Y-5126500D01*
G75*
G02*
X10587500Y-5146500I0J-20000D01*
G01*
G37*
D23*
X7867500Y-5074000D03*
X8117500Y-5074000D03*
X8367500Y-5074000D03*
G36*
G01*
X10732500Y-5206500D02*
X10677500Y-5206500D01*
G75*
G02*
X10657500Y-5186500I0J20000D01*
G01*
X10657500Y-5146500D01*
G75*
G02*
X10677500Y-5126500I20000J0D01*
G01*
X10732500Y-5126500D01*
G75*
G02*
X10752500Y-5146500I0J-20000D01*
G01*
X10752500Y-5186500D01*
G75*
G02*
X10732500Y-5206500I-20000J0D01*
G01*
G37*
G36*
G01*
X10732500Y-5371500D02*
X10677500Y-5371500D01*
G75*
G02*
X10657500Y-5351500I0J20000D01*
G01*
X10657500Y-5311500D01*
G75*
G02*
X10677500Y-5291500I20000J0D01*
G01*
X10732500Y-5291500D01*
G75*
G02*
X10752500Y-5311500I0J-20000D01*
G01*
X10752500Y-5351500D01*
G75*
G02*
X10732500Y-5371500I-20000J0D01*
G01*
G37*
G36*
G01*
X10655000Y-5926500D02*
X10685000Y-5926500D01*
G75*
G02*
X10700000Y-5941500I0J-15000D01*
G01*
X10700000Y-6044000D01*
G75*
G02*
X10685000Y-6059000I-15000J0D01*
G01*
X10655000Y-6059000D01*
G75*
G02*
X10640000Y-6044000I0J15000D01*
G01*
X10640000Y-5941500D01*
G75*
G02*
X10655000Y-5926500I15000J0D01*
G01*
G37*
G36*
G01*
X10560000Y-5699000D02*
X10590000Y-5699000D01*
G75*
G02*
X10605000Y-5714000I0J-15000D01*
G01*
X10605000Y-5816500D01*
G75*
G02*
X10590000Y-5831500I-15000J0D01*
G01*
X10560000Y-5831500D01*
G75*
G02*
X10545000Y-5816500I0J15000D01*
G01*
X10545000Y-5714000D01*
G75*
G02*
X10560000Y-5699000I15000J0D01*
G01*
G37*
G36*
G01*
X10750000Y-5699000D02*
X10780000Y-5699000D01*
G75*
G02*
X10795000Y-5714000I0J-15000D01*
G01*
X10795000Y-5816500D01*
G75*
G02*
X10780000Y-5831500I-15000J0D01*
G01*
X10750000Y-5831500D01*
G75*
G02*
X10735000Y-5816500I0J15000D01*
G01*
X10735000Y-5714000D01*
G75*
G02*
X10750000Y-5699000I15000J0D01*
G01*
G37*
D24*
X10867500Y-5546500D03*
X10537500Y-5546500D03*
G36*
G01*
X7465000Y-7376500D02*
X7465000Y-7426500D01*
G75*
G02*
X7442500Y-7449000I-22500J0D01*
G01*
X7397500Y-7449000D01*
G75*
G02*
X7375000Y-7426500I0J22500D01*
G01*
X7375000Y-7376500D01*
G75*
G02*
X7397500Y-7354000I22500J0D01*
G01*
X7442500Y-7354000D01*
G75*
G02*
X7465000Y-7376500I0J-22500D01*
G01*
G37*
G36*
G01*
X7620000Y-7376500D02*
X7620000Y-7426500D01*
G75*
G02*
X7597500Y-7449000I-22500J0D01*
G01*
X7552500Y-7449000D01*
G75*
G02*
X7530000Y-7426500I0J22500D01*
G01*
X7530000Y-7376500D01*
G75*
G02*
X7552500Y-7354000I22500J0D01*
G01*
X7597500Y-7354000D01*
G75*
G02*
X7620000Y-7376500I0J-22500D01*
G01*
G37*
G36*
G01*
X8777500Y-6129000D02*
X8777500Y-6184000D01*
G75*
G02*
X8757500Y-6204000I-20000J0D01*
G01*
X8717500Y-6204000D01*
G75*
G02*
X8697500Y-6184000I0J20000D01*
G01*
X8697500Y-6129000D01*
G75*
G02*
X8717500Y-6109000I20000J0D01*
G01*
X8757500Y-6109000D01*
G75*
G02*
X8777500Y-6129000I0J-20000D01*
G01*
G37*
G36*
G01*
X8942500Y-6129000D02*
X8942500Y-6184000D01*
G75*
G02*
X8922500Y-6204000I-20000J0D01*
G01*
X8882500Y-6204000D01*
G75*
G02*
X8862500Y-6184000I0J20000D01*
G01*
X8862500Y-6129000D01*
G75*
G02*
X8882500Y-6109000I20000J0D01*
G01*
X8922500Y-6109000D01*
G75*
G02*
X8942500Y-6129000I0J-20000D01*
G01*
G37*
G36*
G01*
X11883000Y-8178375D02*
X11883000Y-8229625D01*
G75*
G02*
X11861125Y-8251500I-21875J0D01*
G01*
X11817375Y-8251500D01*
G75*
G02*
X11795500Y-8229625I0J21875D01*
G01*
X11795500Y-8178375D01*
G75*
G02*
X11817375Y-8156500I21875J0D01*
G01*
X11861125Y-8156500D01*
G75*
G02*
X11883000Y-8178375I0J-21875D01*
G01*
G37*
G36*
G01*
X12040500Y-8178375D02*
X12040500Y-8229625D01*
G75*
G02*
X12018625Y-8251500I-21875J0D01*
G01*
X11974875Y-8251500D01*
G75*
G02*
X11953000Y-8229625I0J21875D01*
G01*
X11953000Y-8178375D01*
G75*
G02*
X11974875Y-8156500I21875J0D01*
G01*
X12018625Y-8156500D01*
G75*
G02*
X12040500Y-8178375I0J-21875D01*
G01*
G37*
G36*
G01*
X10993000Y-8178375D02*
X10993000Y-8229625D01*
G75*
G02*
X10971125Y-8251500I-21875J0D01*
G01*
X10927375Y-8251500D01*
G75*
G02*
X10905500Y-8229625I0J21875D01*
G01*
X10905500Y-8178375D01*
G75*
G02*
X10927375Y-8156500I21875J0D01*
G01*
X10971125Y-8156500D01*
G75*
G02*
X10993000Y-8178375I0J-21875D01*
G01*
G37*
G36*
G01*
X11150500Y-8178375D02*
X11150500Y-8229625D01*
G75*
G02*
X11128625Y-8251500I-21875J0D01*
G01*
X11084875Y-8251500D01*
G75*
G02*
X11063000Y-8229625I0J21875D01*
G01*
X11063000Y-8178375D01*
G75*
G02*
X11084875Y-8156500I21875J0D01*
G01*
X11128625Y-8156500D01*
G75*
G02*
X11150500Y-8178375I0J-21875D01*
G01*
G37*
D25*
X14404500Y-6659000D03*
X14404500Y-6579000D03*
D26*
X14404500Y-6514000D03*
X14404500Y-6414000D03*
X14404500Y-6264000D03*
X14404500Y-6164000D03*
D25*
X14404500Y-6099000D03*
X14404500Y-6019000D03*
X14404500Y-6019000D03*
X14404500Y-6099000D03*
D26*
X14404500Y-6214000D03*
X14404500Y-6314000D03*
X14404500Y-6364000D03*
X14404500Y-6464000D03*
D25*
X14404500Y-6579000D03*
X14404500Y-6659000D03*
G36*
G01*
X11627655Y-6191500D02*
X11577655Y-6191500D01*
G75*
G02*
X11555155Y-6169000I0J22500D01*
G01*
X11555155Y-6124000D01*
G75*
G02*
X11577655Y-6101500I22500J0D01*
G01*
X11627655Y-6101500D01*
G75*
G02*
X11650155Y-6124000I0J-22500D01*
G01*
X11650155Y-6169000D01*
G75*
G02*
X11627655Y-6191500I-22500J0D01*
G01*
G37*
G36*
G01*
X11627655Y-6346500D02*
X11577655Y-6346500D01*
G75*
G02*
X11555155Y-6324000I0J22500D01*
G01*
X11555155Y-6279000D01*
G75*
G02*
X11577655Y-6256500I22500J0D01*
G01*
X11627655Y-6256500D01*
G75*
G02*
X11650155Y-6279000I0J-22500D01*
G01*
X11650155Y-6324000D01*
G75*
G02*
X11627655Y-6346500I-22500J0D01*
G01*
G37*
G36*
G01*
X8750000Y-7101500D02*
X8750000Y-7051500D01*
G75*
G02*
X8772500Y-7029000I22500J0D01*
G01*
X8817500Y-7029000D01*
G75*
G02*
X8840000Y-7051500I0J-22500D01*
G01*
X8840000Y-7101500D01*
G75*
G02*
X8817500Y-7124000I-22500J0D01*
G01*
X8772500Y-7124000D01*
G75*
G02*
X8750000Y-7101500I0J22500D01*
G01*
G37*
G36*
G01*
X8595000Y-7101500D02*
X8595000Y-7051500D01*
G75*
G02*
X8617500Y-7029000I22500J0D01*
G01*
X8662500Y-7029000D01*
G75*
G02*
X8685000Y-7051500I0J-22500D01*
G01*
X8685000Y-7101500D01*
G75*
G02*
X8662500Y-7124000I-22500J0D01*
G01*
X8617500Y-7124000D01*
G75*
G02*
X8595000Y-7101500I0J22500D01*
G01*
G37*
G36*
G01*
X12410500Y-5166500D02*
X12410500Y-5116500D01*
G75*
G02*
X12433000Y-5094000I22500J0D01*
G01*
X12478000Y-5094000D01*
G75*
G02*
X12500500Y-5116500I0J-22500D01*
G01*
X12500500Y-5166500D01*
G75*
G02*
X12478000Y-5189000I-22500J0D01*
G01*
X12433000Y-5189000D01*
G75*
G02*
X12410500Y-5166500I0J22500D01*
G01*
G37*
G36*
G01*
X12255500Y-5166500D02*
X12255500Y-5116500D01*
G75*
G02*
X12278000Y-5094000I22500J0D01*
G01*
X12323000Y-5094000D01*
G75*
G02*
X12345500Y-5116500I0J-22500D01*
G01*
X12345500Y-5166500D01*
G75*
G02*
X12323000Y-5189000I-22500J0D01*
G01*
X12278000Y-5189000D01*
G75*
G02*
X12255500Y-5166500I0J22500D01*
G01*
G37*
G36*
G01*
X13500500Y-4803375D02*
X13500500Y-4839625D01*
G75*
G02*
X13482375Y-4857750I-18125J0D01*
G01*
X13443625Y-4857750D01*
G75*
G02*
X13425500Y-4839625I0J18125D01*
G01*
X13425500Y-4803375D01*
G75*
G02*
X13443625Y-4785250I18125J0D01*
G01*
X13482375Y-4785250D01*
G75*
G02*
X13500500Y-4803375I0J-18125D01*
G01*
G37*
G36*
G01*
X13976043Y-4898412D02*
X13976043Y-4944588D01*
G75*
G02*
X13957293Y-4963338I-18750J0D01*
G01*
X13919793Y-4963338D01*
G75*
G02*
X13901043Y-4944588I0J18750D01*
G01*
X13901043Y-4898412D01*
G75*
G02*
X13919793Y-4879662I18750J0D01*
G01*
X13957293Y-4879662D01*
G75*
G02*
X13976043Y-4898412I0J-18750D01*
G01*
G37*
G36*
G01*
X13976043Y-4803375D02*
X13976043Y-4839625D01*
G75*
G02*
X13957918Y-4857750I-18125J0D01*
G01*
X13919168Y-4857750D01*
G75*
G02*
X13901043Y-4839625I0J18125D01*
G01*
X13901043Y-4803375D01*
G75*
G02*
X13919168Y-4785250I18125J0D01*
G01*
X13957918Y-4785250D01*
G75*
G02*
X13976043Y-4803375I0J-18125D01*
G01*
G37*
G36*
G01*
X13500073Y-4897268D02*
X13500073Y-4943445D01*
G75*
G02*
X13481323Y-4962195I-18750J0D01*
G01*
X13443823Y-4962195D01*
G75*
G02*
X13425073Y-4943445I0J18750D01*
G01*
X13425073Y-4897268D01*
G75*
G02*
X13443823Y-4878518I18750J0D01*
G01*
X13481323Y-4878518D01*
G75*
G02*
X13500073Y-4897268I0J-18750D01*
G01*
G37*
G36*
G01*
X14071043Y-4803375D02*
X14071043Y-4839625D01*
G75*
G02*
X14052918Y-4857750I-18125J0D01*
G01*
X14014168Y-4857750D01*
G75*
G02*
X13996043Y-4839625I0J18125D01*
G01*
X13996043Y-4803375D01*
G75*
G02*
X14014168Y-4785250I18125J0D01*
G01*
X14052918Y-4785250D01*
G75*
G02*
X14071043Y-4803375I0J-18125D01*
G01*
G37*
G36*
G01*
X14070500Y-4897268D02*
X14070500Y-4943445D01*
G75*
G02*
X14051750Y-4962195I-18750J0D01*
G01*
X14014250Y-4962195D01*
G75*
G02*
X13995500Y-4943445I0J18750D01*
G01*
X13995500Y-4897268D01*
G75*
G02*
X14014250Y-4878518I18750J0D01*
G01*
X14051750Y-4878518D01*
G75*
G02*
X14070500Y-4897268I0J-18750D01*
G01*
G37*
G36*
G01*
X13405500Y-4803375D02*
X13405500Y-4839625D01*
G75*
G02*
X13387375Y-4857750I-18125J0D01*
G01*
X13348625Y-4857750D01*
G75*
G02*
X13330500Y-4839625I0J18125D01*
G01*
X13330500Y-4803375D01*
G75*
G02*
X13348625Y-4785250I18125J0D01*
G01*
X13387375Y-4785250D01*
G75*
G02*
X13405500Y-4803375I0J-18125D01*
G01*
G37*
G36*
G01*
X14071043Y-5002963D02*
X14071043Y-5037963D01*
G75*
G02*
X14053543Y-5055463I-17500J0D01*
G01*
X14013543Y-5055463D01*
G75*
G02*
X13996043Y-5037963I0J17500D01*
G01*
X13996043Y-5002963D01*
G75*
G02*
X14013543Y-4985463I17500J0D01*
G01*
X14053543Y-4985463D01*
G75*
G02*
X14071043Y-5002963I0J-17500D01*
G01*
G37*
G36*
G01*
X13405500Y-5002963D02*
X13405500Y-5037963D01*
G75*
G02*
X13388000Y-5055463I-17500J0D01*
G01*
X13348000Y-5055463D01*
G75*
G02*
X13330500Y-5037963I0J17500D01*
G01*
X13330500Y-5002963D01*
G75*
G02*
X13348000Y-4985463I17500J0D01*
G01*
X13388000Y-4985463D01*
G75*
G02*
X13405500Y-5002963I0J-17500D01*
G01*
G37*
G36*
G01*
X13976043Y-5002963D02*
X13976043Y-5037963D01*
G75*
G02*
X13958543Y-5055463I-17500J0D01*
G01*
X13918543Y-5055463D01*
G75*
G02*
X13901043Y-5037963I0J17500D01*
G01*
X13901043Y-5002963D01*
G75*
G02*
X13918543Y-4985463I17500J0D01*
G01*
X13958543Y-4985463D01*
G75*
G02*
X13976043Y-5002963I0J-17500D01*
G01*
G37*
G36*
G01*
X13500500Y-5002963D02*
X13500500Y-5037963D01*
G75*
G02*
X13483000Y-5055463I-17500J0D01*
G01*
X13443000Y-5055463D01*
G75*
G02*
X13425500Y-5037963I0J17500D01*
G01*
X13425500Y-5002963D01*
G75*
G02*
X13443000Y-4985463I17500J0D01*
G01*
X13483000Y-4985463D01*
G75*
G02*
X13500500Y-5002963I0J-17500D01*
G01*
G37*
G36*
G01*
X13405500Y-4898412D02*
X13405500Y-4944588D01*
G75*
G02*
X13386750Y-4963338I-18750J0D01*
G01*
X13349250Y-4963338D01*
G75*
G02*
X13330500Y-4944588I0J18750D01*
G01*
X13330500Y-4898412D01*
G75*
G02*
X13349250Y-4879662I18750J0D01*
G01*
X13386750Y-4879662D01*
G75*
G02*
X13405500Y-4898412I0J-18750D01*
G01*
G37*
G36*
G01*
X13670500Y-5156500D02*
X13670500Y-5296500D01*
G75*
G02*
X13655500Y-5311500I-15000J0D01*
G01*
X13625500Y-5311500D01*
G75*
G02*
X13610500Y-5296500I0J15000D01*
G01*
X13610500Y-5156500D01*
G75*
G02*
X13625500Y-5141500I15000J0D01*
G01*
X13655500Y-5141500D01*
G75*
G02*
X13670500Y-5156500I0J-15000D01*
G01*
G37*
G36*
G01*
X13795500Y-5156500D02*
X13795500Y-5296500D01*
G75*
G02*
X13780500Y-5311500I-15000J0D01*
G01*
X13750500Y-5311500D01*
G75*
G02*
X13735500Y-5296500I0J15000D01*
G01*
X13735500Y-5156500D01*
G75*
G02*
X13750500Y-5141500I15000J0D01*
G01*
X13780500Y-5141500D01*
G75*
G02*
X13795500Y-5156500I0J-15000D01*
G01*
G37*
D17*
X8452500Y-7601500D03*
D16*
X7780000Y-7601500D03*
D17*
X7777500Y-8051500D03*
X8452500Y-8051500D03*
D27*
X12113000Y-5361500D03*
X12113000Y-5111500D03*
G36*
G01*
X12410500Y-5356500D02*
X12410500Y-5306500D01*
G75*
G02*
X12433000Y-5284000I22500J0D01*
G01*
X12478000Y-5284000D01*
G75*
G02*
X12500500Y-5306500I0J-22500D01*
G01*
X12500500Y-5356500D01*
G75*
G02*
X12478000Y-5379000I-22500J0D01*
G01*
X12433000Y-5379000D01*
G75*
G02*
X12410500Y-5356500I0J22500D01*
G01*
G37*
G36*
G01*
X12255500Y-5356500D02*
X12255500Y-5306500D01*
G75*
G02*
X12278000Y-5284000I22500J0D01*
G01*
X12323000Y-5284000D01*
G75*
G02*
X12345500Y-5306500I0J-22500D01*
G01*
X12345500Y-5356500D01*
G75*
G02*
X12323000Y-5379000I-22500J0D01*
G01*
X12278000Y-5379000D01*
G75*
G02*
X12255500Y-5356500I0J22500D01*
G01*
G37*
D28*
X13567500Y-6392750D03*
D29*
X13560000Y-6339000D03*
D28*
X13567500Y-6285250D03*
X13737500Y-6285250D03*
D29*
X13745000Y-6339000D03*
D28*
X13737500Y-6392750D03*
G36*
G01*
X11436000Y-7909000D02*
X11436000Y-7964000D01*
G75*
G02*
X11416000Y-7984000I-20000J0D01*
G01*
X11376000Y-7984000D01*
G75*
G02*
X11356000Y-7964000I0J20000D01*
G01*
X11356000Y-7909000D01*
G75*
G02*
X11376000Y-7889000I20000J0D01*
G01*
X11416000Y-7889000D01*
G75*
G02*
X11436000Y-7909000I0J-20000D01*
G01*
G37*
G36*
G01*
X11601000Y-7909000D02*
X11601000Y-7964000D01*
G75*
G02*
X11581000Y-7984000I-20000J0D01*
G01*
X11541000Y-7984000D01*
G75*
G02*
X11521000Y-7964000I0J20000D01*
G01*
X11521000Y-7909000D01*
G75*
G02*
X11541000Y-7889000I20000J0D01*
G01*
X11581000Y-7889000D01*
G75*
G02*
X11601000Y-7909000I0J-20000D01*
G01*
G37*
D30*
X7254000Y-6412000D03*
X7254000Y-6564500D03*
X7559000Y-6564500D03*
X7406500Y-6259500D03*
X7406500Y-6564500D03*
X7406500Y-6412000D03*
X7254000Y-6259500D03*
X7559000Y-6259500D03*
X7559000Y-6412000D03*
D31*
X6672500Y-5469000D03*
X6799500Y-5469000D03*
X6926500Y-5469000D03*
X7053500Y-5469000D03*
X7180500Y-5469000D03*
X7307500Y-5469000D03*
X7434500Y-5469000D03*
X7561500Y-5469000D03*
X7688500Y-5469000D03*
X7815500Y-5469000D03*
X7942500Y-5469000D03*
X8069500Y-5469000D03*
X8196500Y-5469000D03*
X8323500Y-5469000D03*
D32*
X8448500Y-5772000D03*
X8448500Y-5899000D03*
X8448500Y-6026000D03*
X8448500Y-6153000D03*
X8448500Y-6280000D03*
X8448500Y-6407000D03*
X8448500Y-6534000D03*
X8448500Y-6661000D03*
X8448500Y-6788000D03*
X8448500Y-6915000D03*
D31*
X8323500Y-7219000D03*
X8196500Y-7219000D03*
X8069500Y-7219000D03*
X7942500Y-7219000D03*
X7815500Y-7219000D03*
X7688500Y-7219000D03*
X7561500Y-7219000D03*
X7434500Y-7219000D03*
X7307500Y-7219000D03*
X7180500Y-7219000D03*
X7053500Y-7219000D03*
X6926500Y-7219000D03*
X6799500Y-7219000D03*
X6672500Y-7219000D03*
G36*
G01*
X11157656Y-6256500D02*
X11102656Y-6256500D01*
G75*
G02*
X11082656Y-6236500I0J20000D01*
G01*
X11082656Y-6196500D01*
G75*
G02*
X11102656Y-6176500I20000J0D01*
G01*
X11157656Y-6176500D01*
G75*
G02*
X11177656Y-6196500I0J-20000D01*
G01*
X11177656Y-6236500D01*
G75*
G02*
X11157656Y-6256500I-20000J0D01*
G01*
G37*
G36*
G01*
X11157656Y-6421500D02*
X11102656Y-6421500D01*
G75*
G02*
X11082656Y-6401500I0J20000D01*
G01*
X11082656Y-6361500D01*
G75*
G02*
X11102656Y-6341500I20000J0D01*
G01*
X11157656Y-6341500D01*
G75*
G02*
X11177656Y-6361500I0J-20000D01*
G01*
X11177656Y-6401500D01*
G75*
G02*
X11157656Y-6421500I-20000J0D01*
G01*
G37*
G36*
G01*
X10270000Y-6301500D02*
X10270000Y-6351500D01*
G75*
G02*
X10247500Y-6374000I-22500J0D01*
G01*
X10202500Y-6374000D01*
G75*
G02*
X10180000Y-6351500I0J22500D01*
G01*
X10180000Y-6301500D01*
G75*
G02*
X10202500Y-6279000I22500J0D01*
G01*
X10247500Y-6279000D01*
G75*
G02*
X10270000Y-6301500I0J-22500D01*
G01*
G37*
G36*
G01*
X10425000Y-6301500D02*
X10425000Y-6351500D01*
G75*
G02*
X10402500Y-6374000I-22500J0D01*
G01*
X10357500Y-6374000D01*
G75*
G02*
X10335000Y-6351500I0J22500D01*
G01*
X10335000Y-6301500D01*
G75*
G02*
X10357500Y-6279000I22500J0D01*
G01*
X10402500Y-6279000D01*
G75*
G02*
X10425000Y-6301500I0J-22500D01*
G01*
G37*
G36*
G01*
X11433000Y-8178375D02*
X11433000Y-8229625D01*
G75*
G02*
X11411125Y-8251500I-21875J0D01*
G01*
X11367375Y-8251500D01*
G75*
G02*
X11345500Y-8229625I0J21875D01*
G01*
X11345500Y-8178375D01*
G75*
G02*
X11367375Y-8156500I21875J0D01*
G01*
X11411125Y-8156500D01*
G75*
G02*
X11433000Y-8178375I0J-21875D01*
G01*
G37*
G36*
G01*
X11590500Y-8178375D02*
X11590500Y-8229625D01*
G75*
G02*
X11568625Y-8251500I-21875J0D01*
G01*
X11524875Y-8251500D01*
G75*
G02*
X11503000Y-8229625I0J21875D01*
G01*
X11503000Y-8178375D01*
G75*
G02*
X11524875Y-8156500I21875J0D01*
G01*
X11568625Y-8156500D01*
G75*
G02*
X11590500Y-8178375I0J-21875D01*
G01*
G37*
G36*
G01*
X10985500Y-7909000D02*
X10985500Y-7964000D01*
G75*
G02*
X10965500Y-7984000I-20000J0D01*
G01*
X10925500Y-7984000D01*
G75*
G02*
X10905500Y-7964000I0J20000D01*
G01*
X10905500Y-7909000D01*
G75*
G02*
X10925500Y-7889000I20000J0D01*
G01*
X10965500Y-7889000D01*
G75*
G02*
X10985500Y-7909000I0J-20000D01*
G01*
G37*
G36*
G01*
X11150500Y-7909000D02*
X11150500Y-7964000D01*
G75*
G02*
X11130500Y-7984000I-20000J0D01*
G01*
X11090500Y-7984000D01*
G75*
G02*
X11070500Y-7964000I0J20000D01*
G01*
X11070500Y-7909000D01*
G75*
G02*
X11090500Y-7889000I20000J0D01*
G01*
X11130500Y-7889000D01*
G75*
G02*
X11150500Y-7909000I0J-20000D01*
G01*
G37*
G36*
G01*
X11787500Y-5906500D02*
X11787500Y-5851500D01*
G75*
G02*
X11807500Y-5831500I20000J0D01*
G01*
X11847500Y-5831500D01*
G75*
G02*
X11867500Y-5851500I0J-20000D01*
G01*
X11867500Y-5906500D01*
G75*
G02*
X11847500Y-5926500I-20000J0D01*
G01*
X11807500Y-5926500D01*
G75*
G02*
X11787500Y-5906500I0J20000D01*
G01*
G37*
G36*
G01*
X11622500Y-5906500D02*
X11622500Y-5851500D01*
G75*
G02*
X11642500Y-5831500I20000J0D01*
G01*
X11682500Y-5831500D01*
G75*
G02*
X11702500Y-5851500I0J-20000D01*
G01*
X11702500Y-5906500D01*
G75*
G02*
X11682500Y-5926500I-20000J0D01*
G01*
X11642500Y-5926500D01*
G75*
G02*
X11622500Y-5906500I0J20000D01*
G01*
G37*
G36*
G01*
X11505000Y-7589000D02*
X11505000Y-7559000D01*
G75*
G02*
X11520000Y-7544000I15000J0D01*
G01*
X11637500Y-7544000D01*
G75*
G02*
X11652500Y-7559000I0J-15000D01*
G01*
X11652500Y-7589000D01*
G75*
G02*
X11637500Y-7604000I-15000J0D01*
G01*
X11520000Y-7604000D01*
G75*
G02*
X11505000Y-7589000I0J15000D01*
G01*
G37*
G36*
G01*
X11317500Y-7684000D02*
X11317500Y-7654000D01*
G75*
G02*
X11332500Y-7639000I15000J0D01*
G01*
X11450000Y-7639000D01*
G75*
G02*
X11465000Y-7654000I0J-15000D01*
G01*
X11465000Y-7684000D01*
G75*
G02*
X11450000Y-7699000I-15000J0D01*
G01*
X11332500Y-7699000D01*
G75*
G02*
X11317500Y-7684000I0J15000D01*
G01*
G37*
G36*
G01*
X11317500Y-7494000D02*
X11317500Y-7464000D01*
G75*
G02*
X11332500Y-7449000I15000J0D01*
G01*
X11450000Y-7449000D01*
G75*
G02*
X11465000Y-7464000I0J-15000D01*
G01*
X11465000Y-7494000D01*
G75*
G02*
X11450000Y-7509000I-15000J0D01*
G01*
X11332500Y-7509000D01*
G75*
G02*
X11317500Y-7494000I0J15000D01*
G01*
G37*
G36*
G01*
X13670000Y-5937125D02*
X13670000Y-5885875D01*
G75*
G02*
X13691875Y-5864000I21875J0D01*
G01*
X13735625Y-5864000D01*
G75*
G02*
X13757500Y-5885875I0J-21875D01*
G01*
X13757500Y-5937125D01*
G75*
G02*
X13735625Y-5959000I-21875J0D01*
G01*
X13691875Y-5959000D01*
G75*
G02*
X13670000Y-5937125I0J21875D01*
G01*
G37*
G36*
G01*
X13512500Y-5937125D02*
X13512500Y-5885875D01*
G75*
G02*
X13534375Y-5864000I21875J0D01*
G01*
X13578125Y-5864000D01*
G75*
G02*
X13600000Y-5885875I0J-21875D01*
G01*
X13600000Y-5937125D01*
G75*
G02*
X13578125Y-5959000I-21875J0D01*
G01*
X13534375Y-5959000D01*
G75*
G02*
X13512500Y-5937125I0J21875D01*
G01*
G37*
G36*
G01*
X11814500Y-6645500D02*
X11814500Y-6595500D01*
G75*
G02*
X11837000Y-6573000I22500J0D01*
G01*
X11882000Y-6573000D01*
G75*
G02*
X11904500Y-6595500I0J-22500D01*
G01*
X11904500Y-6645500D01*
G75*
G02*
X11882000Y-6668000I-22500J0D01*
G01*
X11837000Y-6668000D01*
G75*
G02*
X11814500Y-6645500I0J22500D01*
G01*
G37*
G36*
G01*
X11659500Y-6645500D02*
X11659500Y-6595500D01*
G75*
G02*
X11682000Y-6573000I22500J0D01*
G01*
X11727000Y-6573000D01*
G75*
G02*
X11749500Y-6595500I0J-22500D01*
G01*
X11749500Y-6645500D01*
G75*
G02*
X11727000Y-6668000I-22500J0D01*
G01*
X11682000Y-6668000D01*
G75*
G02*
X11659500Y-6645500I0J22500D01*
G01*
G37*
G36*
G01*
X11375000Y-5586500D02*
X11430000Y-5586500D01*
G75*
G02*
X11450000Y-5606500I0J-20000D01*
G01*
X11450000Y-5646500D01*
G75*
G02*
X11430000Y-5666500I-20000J0D01*
G01*
X11375000Y-5666500D01*
G75*
G02*
X11355000Y-5646500I0J20000D01*
G01*
X11355000Y-5606500D01*
G75*
G02*
X11375000Y-5586500I20000J0D01*
G01*
G37*
G36*
G01*
X11375000Y-5421500D02*
X11430000Y-5421500D01*
G75*
G02*
X11450000Y-5441500I0J-20000D01*
G01*
X11450000Y-5481500D01*
G75*
G02*
X11430000Y-5501500I-20000J0D01*
G01*
X11375000Y-5501500D01*
G75*
G02*
X11355000Y-5481500I0J20000D01*
G01*
X11355000Y-5441500D01*
G75*
G02*
X11375000Y-5421500I20000J0D01*
G01*
G37*
D19*
X12661000Y-5679000D03*
D20*
X12661000Y-5006500D03*
X13111000Y-5681500D03*
X13111000Y-5006500D03*
G36*
G01*
X11312500Y-5101500D02*
X11312500Y-5156500D01*
G75*
G02*
X11292500Y-5176500I-20000J0D01*
G01*
X11252500Y-5176500D01*
G75*
G02*
X11232500Y-5156500I0J20000D01*
G01*
X11232500Y-5101500D01*
G75*
G02*
X11252500Y-5081500I20000J0D01*
G01*
X11292500Y-5081500D01*
G75*
G02*
X11312500Y-5101500I0J-20000D01*
G01*
G37*
G36*
G01*
X11477500Y-5101500D02*
X11477500Y-5156500D01*
G75*
G02*
X11457500Y-5176500I-20000J0D01*
G01*
X11417500Y-5176500D01*
G75*
G02*
X11397500Y-5156500I0J20000D01*
G01*
X11397500Y-5101500D01*
G75*
G02*
X11417500Y-5081500I20000J0D01*
G01*
X11457500Y-5081500D01*
G75*
G02*
X11477500Y-5101500I0J-20000D01*
G01*
G37*
G36*
G01*
X11814500Y-6488500D02*
X11814500Y-6438500D01*
G75*
G02*
X11837000Y-6416000I22500J0D01*
G01*
X11882000Y-6416000D01*
G75*
G02*
X11904500Y-6438500I0J-22500D01*
G01*
X11904500Y-6488500D01*
G75*
G02*
X11882000Y-6511000I-22500J0D01*
G01*
X11837000Y-6511000D01*
G75*
G02*
X11814500Y-6488500I0J22500D01*
G01*
G37*
G36*
G01*
X11659500Y-6488500D02*
X11659500Y-6438500D01*
G75*
G02*
X11682000Y-6416000I22500J0D01*
G01*
X11727000Y-6416000D01*
G75*
G02*
X11749500Y-6438500I0J-22500D01*
G01*
X11749500Y-6488500D01*
G75*
G02*
X11727000Y-6511000I-22500J0D01*
G01*
X11682000Y-6511000D01*
G75*
G02*
X11659500Y-6488500I0J22500D01*
G01*
G37*
G36*
G01*
X10270000Y-6149000D02*
X10270000Y-6199000D01*
G75*
G02*
X10247500Y-6221500I-22500J0D01*
G01*
X10202500Y-6221500D01*
G75*
G02*
X10180000Y-6199000I0J22500D01*
G01*
X10180000Y-6149000D01*
G75*
G02*
X10202500Y-6126500I22500J0D01*
G01*
X10247500Y-6126500D01*
G75*
G02*
X10270000Y-6149000I0J-22500D01*
G01*
G37*
G36*
G01*
X10425000Y-6149000D02*
X10425000Y-6199000D01*
G75*
G02*
X10402500Y-6221500I-22500J0D01*
G01*
X10357500Y-6221500D01*
G75*
G02*
X10335000Y-6199000I0J22500D01*
G01*
X10335000Y-6149000D01*
G75*
G02*
X10357500Y-6126500I22500J0D01*
G01*
X10402500Y-6126500D01*
G75*
G02*
X10425000Y-6149000I0J-22500D01*
G01*
G37*
G36*
G01*
X14047500Y-5846500D02*
X14077500Y-5846500D01*
G75*
G02*
X14092500Y-5861500I0J-15000D01*
G01*
X14092500Y-5964000D01*
G75*
G02*
X14077500Y-5979000I-15000J0D01*
G01*
X14047500Y-5979000D01*
G75*
G02*
X14032500Y-5964000I0J15000D01*
G01*
X14032500Y-5861500D01*
G75*
G02*
X14047500Y-5846500I15000J0D01*
G01*
G37*
G36*
G01*
X13857500Y-5846500D02*
X13887500Y-5846500D01*
G75*
G02*
X13902500Y-5861500I0J-15000D01*
G01*
X13902500Y-5964000D01*
G75*
G02*
X13887500Y-5979000I-15000J0D01*
G01*
X13857500Y-5979000D01*
G75*
G02*
X13842500Y-5964000I0J15000D01*
G01*
X13842500Y-5861500D01*
G75*
G02*
X13857500Y-5846500I15000J0D01*
G01*
G37*
G36*
G01*
X13857500Y-5619000D02*
X13887500Y-5619000D01*
G75*
G02*
X13902500Y-5634000I0J-15000D01*
G01*
X13902500Y-5736500D01*
G75*
G02*
X13887500Y-5751500I-15000J0D01*
G01*
X13857500Y-5751500D01*
G75*
G02*
X13842500Y-5736500I0J15000D01*
G01*
X13842500Y-5634000D01*
G75*
G02*
X13857500Y-5619000I15000J0D01*
G01*
G37*
G36*
G01*
X13952500Y-5619000D02*
X13982500Y-5619000D01*
G75*
G02*
X13997500Y-5634000I0J-15000D01*
G01*
X13997500Y-5736500D01*
G75*
G02*
X13982500Y-5751500I-15000J0D01*
G01*
X13952500Y-5751500D01*
G75*
G02*
X13937500Y-5736500I0J15000D01*
G01*
X13937500Y-5634000D01*
G75*
G02*
X13952500Y-5619000I15000J0D01*
G01*
G37*
G36*
G01*
X14047500Y-5619000D02*
X14077500Y-5619000D01*
G75*
G02*
X14092500Y-5634000I0J-15000D01*
G01*
X14092500Y-5736500D01*
G75*
G02*
X14077500Y-5751500I-15000J0D01*
G01*
X14047500Y-5751500D01*
G75*
G02*
X14032500Y-5736500I0J15000D01*
G01*
X14032500Y-5634000D01*
G75*
G02*
X14047500Y-5619000I15000J0D01*
G01*
G37*
G36*
G01*
X10637500Y-6351500D02*
X10637500Y-6301500D01*
G75*
G02*
X10660000Y-6279000I22500J0D01*
G01*
X10705000Y-6279000D01*
G75*
G02*
X10727500Y-6301500I0J-22500D01*
G01*
X10727500Y-6351500D01*
G75*
G02*
X10705000Y-6374000I-22500J0D01*
G01*
X10660000Y-6374000D01*
G75*
G02*
X10637500Y-6351500I0J22500D01*
G01*
G37*
G36*
G01*
X10482500Y-6351500D02*
X10482500Y-6301500D01*
G75*
G02*
X10505000Y-6279000I22500J0D01*
G01*
X10550000Y-6279000D01*
G75*
G02*
X10572500Y-6301500I0J-22500D01*
G01*
X10572500Y-6351500D01*
G75*
G02*
X10550000Y-6374000I-22500J0D01*
G01*
X10505000Y-6374000D01*
G75*
G02*
X10482500Y-6351500I0J22500D01*
G01*
G37*
G36*
G01*
X8772500Y-6354000D02*
X8772500Y-6409000D01*
G75*
G02*
X8752500Y-6429000I-20000J0D01*
G01*
X8712500Y-6429000D01*
G75*
G02*
X8692500Y-6409000I0J20000D01*
G01*
X8692500Y-6354000D01*
G75*
G02*
X8712500Y-6334000I20000J0D01*
G01*
X8752500Y-6334000D01*
G75*
G02*
X8772500Y-6354000I0J-20000D01*
G01*
G37*
G36*
G01*
X8937500Y-6354000D02*
X8937500Y-6409000D01*
G75*
G02*
X8917500Y-6429000I-20000J0D01*
G01*
X8877500Y-6429000D01*
G75*
G02*
X8857500Y-6409000I0J20000D01*
G01*
X8857500Y-6354000D01*
G75*
G02*
X8877500Y-6334000I20000J0D01*
G01*
X8917500Y-6334000D01*
G75*
G02*
X8937500Y-6354000I0J-20000D01*
G01*
G37*
G36*
G01*
X11172500Y-7696500D02*
X11172500Y-7641500D01*
G75*
G02*
X11192500Y-7621500I20000J0D01*
G01*
X11232500Y-7621500D01*
G75*
G02*
X11252500Y-7641500I0J-20000D01*
G01*
X11252500Y-7696500D01*
G75*
G02*
X11232500Y-7716500I-20000J0D01*
G01*
X11192500Y-7716500D01*
G75*
G02*
X11172500Y-7696500I0J20000D01*
G01*
G37*
G36*
G01*
X11007500Y-7696500D02*
X11007500Y-7641500D01*
G75*
G02*
X11027500Y-7621500I20000J0D01*
G01*
X11067500Y-7621500D01*
G75*
G02*
X11087500Y-7641500I0J-20000D01*
G01*
X11087500Y-7696500D01*
G75*
G02*
X11067500Y-7716500I-20000J0D01*
G01*
X11027500Y-7716500D01*
G75*
G02*
X11007500Y-7696500I0J20000D01*
G01*
G37*
G36*
G01*
X10432500Y-5304000D02*
X10432500Y-5354000D01*
G75*
G02*
X10410000Y-5376500I-22500J0D01*
G01*
X10365000Y-5376500D01*
G75*
G02*
X10342500Y-5354000I0J22500D01*
G01*
X10342500Y-5304000D01*
G75*
G02*
X10365000Y-5281500I22500J0D01*
G01*
X10410000Y-5281500D01*
G75*
G02*
X10432500Y-5304000I0J-22500D01*
G01*
G37*
G36*
G01*
X10587500Y-5304000D02*
X10587500Y-5354000D01*
G75*
G02*
X10565000Y-5376500I-22500J0D01*
G01*
X10520000Y-5376500D01*
G75*
G02*
X10497500Y-5354000I0J22500D01*
G01*
X10497500Y-5304000D01*
G75*
G02*
X10520000Y-5281500I22500J0D01*
G01*
X10565000Y-5281500D01*
G75*
G02*
X10587500Y-5304000I0J-22500D01*
G01*
G37*
M02*
