G04 #@! TF.GenerationSoftware,KiCad,Pcbnew,(6.0.11)*
G04 #@! TF.CreationDate,2024-06-06T18:38:18+02:00*
G04 #@! TF.ProjectId,Wireless_Motion,57697265-6c65-4737-935f-4d6f74696f6e,rev?*
G04 #@! TF.SameCoordinates,Original*
G04 #@! TF.FileFunction,Profile,NP*
%FSLAX45Y45*%
G04 Gerber Fmt 4.5, Leading zero omitted, Abs format (unit mm)*
G04 Created by KiCad (PCBNEW (6.0.11)) date 2024-06-06 18:38:18*
%MOMM*%
%LPD*%
G01*
G04 APERTURE LIST*
G04 #@! TA.AperFunction,Profile*
%ADD10C,0.100000*%
G04 #@! TD*
G04 APERTURE END LIST*
D10*
X8727500Y-7614000D02*
X8727500Y-8254000D01*
X13433000Y-4516500D02*
G75*
G03*
X13533000Y-4616500I100000J0D01*
G01*
X12223568Y-7524000D02*
X12249068Y-7524000D01*
X14040500Y-4344000D02*
G75*
G03*
X13950500Y-4434000I0J-90000D01*
G01*
X13433000Y-4434000D02*
G75*
G03*
X13343000Y-4344000I-90000J0D01*
G01*
X8637500Y-8344000D02*
G75*
G03*
X8727500Y-8254000I0J90000D01*
G01*
X8637500Y-8344000D02*
X6987500Y-8344000D01*
X15137500Y-4794000D02*
G75*
G03*
X14687500Y-4344000I-450000J0D01*
G01*
X13850500Y-4616500D02*
G75*
G03*
X13950500Y-4516500I0J100000D01*
G01*
X13950500Y-4434000D02*
X13950500Y-4516500D01*
X6537500Y-7894000D02*
X6537500Y-4794000D01*
X13343000Y-4344000D02*
X6987500Y-4344000D01*
X8933000Y-8254000D02*
G75*
G03*
X9023000Y-8344000I90000J0D01*
G01*
X13433000Y-4516500D02*
X13433000Y-4434000D01*
X6987500Y-4344000D02*
G75*
G03*
X6537500Y-4794000I0J-450000D01*
G01*
X8933000Y-7614000D02*
X8933000Y-8254000D01*
X6537500Y-7894000D02*
G75*
G03*
X6987500Y-8344000I450000J0D01*
G01*
X12339070Y-7614000D02*
G75*
G03*
X12249068Y-7524000I-90000J0D01*
G01*
X8817500Y-7524000D02*
G75*
G03*
X8727500Y-7614000I0J-90000D01*
G01*
X12339070Y-8254000D02*
G75*
G03*
X12429068Y-8344000I90000J0D01*
G01*
X14040500Y-4344000D02*
X14687500Y-4344000D01*
X9023000Y-8344000D02*
X12043568Y-8344000D01*
X12339068Y-7614000D02*
X12339068Y-8254000D01*
X12133568Y-7614000D02*
X12133568Y-8254000D01*
X12429068Y-8344000D02*
X14687500Y-8344000D01*
X12043568Y-8343998D02*
G75*
G03*
X12133568Y-8254000I2J89999D01*
G01*
X13533000Y-4616500D02*
X13850500Y-4616500D01*
X8933000Y-7614000D02*
G75*
G03*
X8843000Y-7524000I-90000J0D01*
G01*
X14687500Y-8344000D02*
G75*
G03*
X15137500Y-7894000I0J450000D01*
G01*
X12223568Y-7523998D02*
G75*
G03*
X12133568Y-7614000I2J-90002D01*
G01*
X8817500Y-7524000D02*
X8843000Y-7524000D01*
X15137500Y-4794000D02*
X15137500Y-7894000D01*
M02*
