G04 #@! TF.GenerationSoftware,KiCad,Pcbnew,(6.0.11)*
G04 #@! TF.CreationDate,2024-06-06T18:38:18+02:00*
G04 #@! TF.ProjectId,Wireless_Motion,57697265-6c65-4737-935f-4d6f74696f6e,rev?*
G04 #@! TF.SameCoordinates,Original*
G04 #@! TF.FileFunction,Legend,Bot*
G04 #@! TF.FilePolarity,Positive*
%FSLAX45Y45*%
G04 Gerber Fmt 4.5, Leading zero omitted, Abs format (unit mm)*
G04 Created by KiCad (PCBNEW (6.0.11)) date 2024-06-06 18:38:18*
%MOMM*%
%LPD*%
G01*
G04 APERTURE LIST*
%ADD10C,0.150000*%
%ADD11C,0.200000*%
%ADD12C,0.120000*%
G04 APERTURE END LIST*
D10*
X12401571Y-5929357D02*
X12387286Y-5934119D01*
X12382524Y-5938881D01*
X12377762Y-5948405D01*
X12377762Y-5962690D01*
X12382524Y-5972214D01*
X12387286Y-5976976D01*
X12396809Y-5981738D01*
X12434905Y-5981738D01*
X12434905Y-5881738D01*
X12401571Y-5881738D01*
X12392048Y-5886500D01*
X12387286Y-5891262D01*
X12382524Y-5900786D01*
X12382524Y-5910309D01*
X12387286Y-5919833D01*
X12392048Y-5924595D01*
X12401571Y-5929357D01*
X12434905Y-5929357D01*
X12334905Y-5981738D02*
X12334905Y-5881738D01*
X12277762Y-5981738D01*
X12277762Y-5881738D01*
X12211095Y-5881738D02*
X12192048Y-5881738D01*
X12182524Y-5886500D01*
X12173000Y-5896024D01*
X12168238Y-5915071D01*
X12168238Y-5948405D01*
X12173000Y-5967452D01*
X12182524Y-5976976D01*
X12192048Y-5981738D01*
X12211095Y-5981738D01*
X12220619Y-5976976D01*
X12230143Y-5967452D01*
X12234905Y-5948405D01*
X12234905Y-5915071D01*
X12230143Y-5896024D01*
X12220619Y-5886500D01*
X12211095Y-5881738D01*
X12053952Y-5953167D02*
X12006333Y-5953167D01*
X12063476Y-5981738D02*
X12030143Y-5881738D01*
X11996809Y-5981738D01*
X11963476Y-5981738D02*
X11963476Y-5881738D01*
X11939667Y-5881738D01*
X11925381Y-5886500D01*
X11915857Y-5896024D01*
X11911095Y-5905548D01*
X11906333Y-5924595D01*
X11906333Y-5938881D01*
X11911095Y-5957928D01*
X11915857Y-5967452D01*
X11925381Y-5976976D01*
X11939667Y-5981738D01*
X11963476Y-5981738D01*
X11863476Y-5981738D02*
X11863476Y-5881738D01*
X11839667Y-5881738D01*
X11825381Y-5886500D01*
X11815857Y-5896024D01*
X11811095Y-5905548D01*
X11806333Y-5924595D01*
X11806333Y-5938881D01*
X11811095Y-5957928D01*
X11815857Y-5967452D01*
X11825381Y-5976976D01*
X11839667Y-5981738D01*
X11863476Y-5981738D01*
X11706333Y-5981738D02*
X11739667Y-5934119D01*
X11763476Y-5981738D02*
X11763476Y-5881738D01*
X11725381Y-5881738D01*
X11715857Y-5886500D01*
X11711095Y-5891262D01*
X11706333Y-5900786D01*
X11706333Y-5915071D01*
X11711095Y-5924595D01*
X11715857Y-5929357D01*
X11725381Y-5934119D01*
X11763476Y-5934119D01*
X12030619Y-7331738D02*
X11997286Y-7431738D01*
X11963952Y-7331738D01*
X11930619Y-7431738D02*
X11930619Y-7331738D01*
X11863952Y-7331738D02*
X11844905Y-7331738D01*
X11835381Y-7336500D01*
X11825857Y-7346024D01*
X11821095Y-7365071D01*
X11821095Y-7398405D01*
X11825857Y-7417452D01*
X11835381Y-7426976D01*
X11844905Y-7431738D01*
X11863952Y-7431738D01*
X11873476Y-7426976D01*
X11883000Y-7417452D01*
X11887762Y-7398405D01*
X11887762Y-7365071D01*
X11883000Y-7346024D01*
X11873476Y-7336500D01*
X11863952Y-7331738D01*
X11802048Y-7441262D02*
X11725857Y-7441262D01*
X11644905Y-7422214D02*
X11649667Y-7426976D01*
X11663952Y-7431738D01*
X11673476Y-7431738D01*
X11687762Y-7426976D01*
X11697286Y-7417452D01*
X11702048Y-7407928D01*
X11706809Y-7388881D01*
X11706809Y-7374595D01*
X11702048Y-7355548D01*
X11697286Y-7346024D01*
X11687762Y-7336500D01*
X11673476Y-7331738D01*
X11663952Y-7331738D01*
X11649667Y-7336500D01*
X11644905Y-7341262D01*
X11602048Y-7431738D02*
X11602048Y-7331738D01*
X11563952Y-7331738D01*
X11554428Y-7336500D01*
X11549667Y-7341262D01*
X11544905Y-7350786D01*
X11544905Y-7365071D01*
X11549667Y-7374595D01*
X11554428Y-7379357D01*
X11563952Y-7384119D01*
X11602048Y-7384119D01*
X14079190Y-7516500D02*
X14088714Y-7511738D01*
X14103000Y-7511738D01*
X14117286Y-7516500D01*
X14126809Y-7526024D01*
X14131571Y-7535548D01*
X14136333Y-7554595D01*
X14136333Y-7568881D01*
X14131571Y-7587928D01*
X14126809Y-7597452D01*
X14117286Y-7606976D01*
X14103000Y-7611738D01*
X14093476Y-7611738D01*
X14079190Y-7606976D01*
X14074428Y-7602214D01*
X14074428Y-7568881D01*
X14093476Y-7568881D01*
X14031571Y-7611738D02*
X14031571Y-7511738D01*
X13974428Y-7611738D01*
X13974428Y-7511738D01*
X13926809Y-7611738D02*
X13926809Y-7511738D01*
X13903000Y-7511738D01*
X13888714Y-7516500D01*
X13879190Y-7526024D01*
X13874428Y-7535548D01*
X13869667Y-7554595D01*
X13869667Y-7568881D01*
X13874428Y-7587928D01*
X13879190Y-7597452D01*
X13888714Y-7606976D01*
X13903000Y-7611738D01*
X13926809Y-7611738D01*
X14146809Y-5099357D02*
X14132524Y-5104119D01*
X14127762Y-5108881D01*
X14123000Y-5118405D01*
X14123000Y-5132690D01*
X14127762Y-5142214D01*
X14132524Y-5146976D01*
X14142048Y-5151738D01*
X14180143Y-5151738D01*
X14180143Y-5051738D01*
X14146809Y-5051738D01*
X14137286Y-5056500D01*
X14132524Y-5061262D01*
X14127762Y-5070786D01*
X14127762Y-5080310D01*
X14132524Y-5089833D01*
X14137286Y-5094595D01*
X14146809Y-5099357D01*
X14180143Y-5099357D01*
X14084905Y-5123167D02*
X14037286Y-5123167D01*
X14094428Y-5151738D02*
X14061095Y-5051738D01*
X14027762Y-5151738D01*
X14008714Y-5051738D02*
X13951571Y-5051738D01*
X13980143Y-5151738D02*
X13980143Y-5051738D01*
X13932524Y-5051738D02*
X13875381Y-5051738D01*
X13903952Y-5151738D02*
X13903952Y-5051738D01*
X13842048Y-5113643D02*
X13765857Y-5113643D01*
X13803952Y-5151738D02*
X13803952Y-5075548D01*
X10566810Y-6791738D02*
X10504905Y-6791738D01*
X10538238Y-6829833D01*
X10523952Y-6829833D01*
X10514429Y-6834595D01*
X10509667Y-6839357D01*
X10504905Y-6848881D01*
X10504905Y-6872690D01*
X10509667Y-6882214D01*
X10514429Y-6886976D01*
X10523952Y-6891738D01*
X10552524Y-6891738D01*
X10562048Y-6886976D01*
X10566810Y-6882214D01*
X10476333Y-6791738D02*
X10443000Y-6891738D01*
X10409667Y-6791738D01*
X10385857Y-6791738D02*
X10323952Y-6791738D01*
X10357286Y-6829833D01*
X10343000Y-6829833D01*
X10333476Y-6834595D01*
X10328714Y-6839357D01*
X10323952Y-6848881D01*
X10323952Y-6872690D01*
X10328714Y-6882214D01*
X10333476Y-6886976D01*
X10343000Y-6891738D01*
X10371571Y-6891738D01*
X10381095Y-6886976D01*
X10385857Y-6882214D01*
X12414428Y-6511738D02*
X12381095Y-6611738D01*
X12347762Y-6511738D01*
X12314428Y-6611738D02*
X12314428Y-6511738D01*
X12290619Y-6511738D01*
X12276333Y-6516500D01*
X12266809Y-6526024D01*
X12262048Y-6535548D01*
X12257286Y-6554595D01*
X12257286Y-6568881D01*
X12262048Y-6587928D01*
X12266809Y-6597452D01*
X12276333Y-6606976D01*
X12290619Y-6611738D01*
X12314428Y-6611738D01*
X12214428Y-6611738D02*
X12214428Y-6511738D01*
X12190619Y-6511738D01*
X12176333Y-6516500D01*
X12166809Y-6526024D01*
X12162048Y-6535548D01*
X12157286Y-6554595D01*
X12157286Y-6568881D01*
X12162048Y-6587928D01*
X12166809Y-6597452D01*
X12176333Y-6606976D01*
X12190619Y-6611738D01*
X12214428Y-6611738D01*
X12138238Y-6621262D02*
X12062048Y-6621262D01*
X11981095Y-6602214D02*
X11985857Y-6606976D01*
X12000143Y-6611738D01*
X12009667Y-6611738D01*
X12023952Y-6606976D01*
X12033476Y-6597452D01*
X12038238Y-6587928D01*
X12043000Y-6568881D01*
X12043000Y-6554595D01*
X12038238Y-6535548D01*
X12033476Y-6526024D01*
X12023952Y-6516500D01*
X12009667Y-6511738D01*
X12000143Y-6511738D01*
X11985857Y-6516500D01*
X11981095Y-6521262D01*
X11938238Y-6611738D02*
X11938238Y-6511738D01*
X11900143Y-6511738D01*
X11890619Y-6516500D01*
X11885857Y-6521262D01*
X11881095Y-6530786D01*
X11881095Y-6545071D01*
X11885857Y-6554595D01*
X11890619Y-6559357D01*
X11900143Y-6564119D01*
X11938238Y-6564119D01*
X12966333Y-6351738D02*
X12933000Y-6451738D01*
X12899667Y-6351738D01*
X12833000Y-6399357D02*
X12818714Y-6404119D01*
X12813952Y-6408881D01*
X12809190Y-6418405D01*
X12809190Y-6432690D01*
X12813952Y-6442214D01*
X12818714Y-6446976D01*
X12828238Y-6451738D01*
X12866333Y-6451738D01*
X12866333Y-6351738D01*
X12833000Y-6351738D01*
X12823476Y-6356500D01*
X12818714Y-6361262D01*
X12813952Y-6370786D01*
X12813952Y-6380309D01*
X12818714Y-6389833D01*
X12823476Y-6394595D01*
X12833000Y-6399357D01*
X12866333Y-6399357D01*
X12766333Y-6351738D02*
X12766333Y-6432690D01*
X12761571Y-6442214D01*
X12756809Y-6446976D01*
X12747286Y-6451738D01*
X12728238Y-6451738D01*
X12718714Y-6446976D01*
X12713952Y-6442214D01*
X12709190Y-6432690D01*
X12709190Y-6351738D01*
X12666333Y-6446976D02*
X12652048Y-6451738D01*
X12628238Y-6451738D01*
X12618714Y-6446976D01*
X12613952Y-6442214D01*
X12609190Y-6432690D01*
X12609190Y-6423167D01*
X12613952Y-6413643D01*
X12618714Y-6408881D01*
X12628238Y-6404119D01*
X12647286Y-6399357D01*
X12656809Y-6394595D01*
X12661571Y-6389833D01*
X12666333Y-6380309D01*
X12666333Y-6370786D01*
X12661571Y-6361262D01*
X12656809Y-6356500D01*
X12647286Y-6351738D01*
X12623476Y-6351738D01*
X12609190Y-6356500D01*
D11*
X11630143Y-7660786D02*
X11601571Y-7780786D01*
X11578714Y-7695071D01*
X11555857Y-7780786D01*
X11527286Y-7660786D01*
X11481571Y-7780786D02*
X11481571Y-7700786D01*
X11481571Y-7660786D02*
X11487286Y-7666500D01*
X11481571Y-7672214D01*
X11475857Y-7666500D01*
X11481571Y-7660786D01*
X11481571Y-7672214D01*
X11424428Y-7780786D02*
X11424428Y-7700786D01*
X11424428Y-7723643D02*
X11418714Y-7712214D01*
X11413000Y-7706500D01*
X11401571Y-7700786D01*
X11390143Y-7700786D01*
X11304428Y-7775071D02*
X11315857Y-7780786D01*
X11338714Y-7780786D01*
X11350143Y-7775071D01*
X11355857Y-7763643D01*
X11355857Y-7717928D01*
X11350143Y-7706500D01*
X11338714Y-7700786D01*
X11315857Y-7700786D01*
X11304428Y-7706500D01*
X11298714Y-7717928D01*
X11298714Y-7729357D01*
X11355857Y-7740786D01*
X11230143Y-7780786D02*
X11241571Y-7775071D01*
X11247286Y-7763643D01*
X11247286Y-7660786D01*
X11138714Y-7775071D02*
X11150143Y-7780786D01*
X11173000Y-7780786D01*
X11184429Y-7775071D01*
X11190143Y-7763643D01*
X11190143Y-7717928D01*
X11184429Y-7706500D01*
X11173000Y-7700786D01*
X11150143Y-7700786D01*
X11138714Y-7706500D01*
X11133000Y-7717928D01*
X11133000Y-7729357D01*
X11190143Y-7740786D01*
X11087286Y-7775071D02*
X11075857Y-7780786D01*
X11053000Y-7780786D01*
X11041571Y-7775071D01*
X11035857Y-7763643D01*
X11035857Y-7757928D01*
X11041571Y-7746500D01*
X11053000Y-7740786D01*
X11070143Y-7740786D01*
X11081571Y-7735071D01*
X11087286Y-7723643D01*
X11087286Y-7717928D01*
X11081571Y-7706500D01*
X11070143Y-7700786D01*
X11053000Y-7700786D01*
X11041571Y-7706500D01*
X10990143Y-7775071D02*
X10978714Y-7780786D01*
X10955857Y-7780786D01*
X10944429Y-7775071D01*
X10938714Y-7763643D01*
X10938714Y-7757928D01*
X10944429Y-7746500D01*
X10955857Y-7740786D01*
X10973000Y-7740786D01*
X10984429Y-7735071D01*
X10990143Y-7723643D01*
X10990143Y-7717928D01*
X10984429Y-7706500D01*
X10973000Y-7700786D01*
X10955857Y-7700786D01*
X10944429Y-7706500D01*
X10795857Y-7780786D02*
X10795857Y-7660786D01*
X10755857Y-7746500D01*
X10715857Y-7660786D01*
X10715857Y-7780786D01*
X10641571Y-7780786D02*
X10653000Y-7775071D01*
X10658714Y-7769357D01*
X10664429Y-7757928D01*
X10664429Y-7723643D01*
X10658714Y-7712214D01*
X10653000Y-7706500D01*
X10641571Y-7700786D01*
X10624429Y-7700786D01*
X10613000Y-7706500D01*
X10607286Y-7712214D01*
X10601571Y-7723643D01*
X10601571Y-7757928D01*
X10607286Y-7769357D01*
X10613000Y-7775071D01*
X10624429Y-7780786D01*
X10641571Y-7780786D01*
X10567286Y-7700786D02*
X10521571Y-7700786D01*
X10550143Y-7660786D02*
X10550143Y-7763643D01*
X10544429Y-7775071D01*
X10533000Y-7780786D01*
X10521571Y-7780786D01*
X10481571Y-7780786D02*
X10481571Y-7700786D01*
X10481571Y-7660786D02*
X10487286Y-7666500D01*
X10481571Y-7672214D01*
X10475857Y-7666500D01*
X10481571Y-7660786D01*
X10481571Y-7672214D01*
X10407286Y-7780786D02*
X10418714Y-7775071D01*
X10424429Y-7769357D01*
X10430143Y-7757928D01*
X10430143Y-7723643D01*
X10424429Y-7712214D01*
X10418714Y-7706500D01*
X10407286Y-7700786D01*
X10390143Y-7700786D01*
X10378714Y-7706500D01*
X10373000Y-7712214D01*
X10367286Y-7723643D01*
X10367286Y-7757928D01*
X10373000Y-7769357D01*
X10378714Y-7775071D01*
X10390143Y-7780786D01*
X10407286Y-7780786D01*
X10315857Y-7700786D02*
X10315857Y-7780786D01*
X10315857Y-7712214D02*
X10310143Y-7706500D01*
X10298714Y-7700786D01*
X10281571Y-7700786D01*
X10270143Y-7706500D01*
X10264429Y-7717928D01*
X10264429Y-7780786D01*
X10121571Y-7775071D02*
X10104429Y-7780786D01*
X10075857Y-7780786D01*
X10064429Y-7775071D01*
X10058714Y-7769357D01*
X10053000Y-7757928D01*
X10053000Y-7746500D01*
X10058714Y-7735071D01*
X10064429Y-7729357D01*
X10075857Y-7723643D01*
X10098714Y-7717928D01*
X10110143Y-7712214D01*
X10115857Y-7706500D01*
X10121571Y-7695071D01*
X10121571Y-7683643D01*
X10115857Y-7672214D01*
X10110143Y-7666500D01*
X10098714Y-7660786D01*
X10070143Y-7660786D01*
X10053000Y-7666500D01*
X9955857Y-7775071D02*
X9967286Y-7780786D01*
X9990143Y-7780786D01*
X10001571Y-7775071D01*
X10007286Y-7763643D01*
X10007286Y-7717928D01*
X10001571Y-7706500D01*
X9990143Y-7700786D01*
X9967286Y-7700786D01*
X9955857Y-7706500D01*
X9950143Y-7717928D01*
X9950143Y-7729357D01*
X10007286Y-7740786D01*
X9898714Y-7700786D02*
X9898714Y-7780786D01*
X9898714Y-7712214D02*
X9893000Y-7706500D01*
X9881571Y-7700786D01*
X9864429Y-7700786D01*
X9853000Y-7706500D01*
X9847286Y-7717928D01*
X9847286Y-7780786D01*
X9795857Y-7775071D02*
X9784429Y-7780786D01*
X9761571Y-7780786D01*
X9750143Y-7775071D01*
X9744429Y-7763643D01*
X9744429Y-7757928D01*
X9750143Y-7746500D01*
X9761571Y-7740786D01*
X9778714Y-7740786D01*
X9790143Y-7735071D01*
X9795857Y-7723643D01*
X9795857Y-7717928D01*
X9790143Y-7706500D01*
X9778714Y-7700786D01*
X9761571Y-7700786D01*
X9750143Y-7706500D01*
X9675857Y-7780786D02*
X9687286Y-7775071D01*
X9693000Y-7769357D01*
X9698714Y-7757928D01*
X9698714Y-7723643D01*
X9693000Y-7712214D01*
X9687286Y-7706500D01*
X9675857Y-7700786D01*
X9658714Y-7700786D01*
X9647286Y-7706500D01*
X9641571Y-7712214D01*
X9635857Y-7723643D01*
X9635857Y-7757928D01*
X9641571Y-7769357D01*
X9647286Y-7775071D01*
X9658714Y-7780786D01*
X9675857Y-7780786D01*
X9584429Y-7780786D02*
X9584429Y-7700786D01*
X9584429Y-7723643D02*
X9578714Y-7712214D01*
X9573000Y-7706500D01*
X9561571Y-7700786D01*
X9550143Y-7700786D01*
X11341571Y-8033167D02*
X11293952Y-8033167D01*
X11351095Y-8061738D02*
X11317762Y-7961738D01*
X11284428Y-8061738D01*
X11236809Y-8061738D02*
X11246333Y-8056976D01*
X11251095Y-8047452D01*
X11251095Y-7961738D01*
X11198714Y-7995071D02*
X11198714Y-8095071D01*
X11198714Y-7999833D02*
X11189190Y-7995071D01*
X11170143Y-7995071D01*
X11160619Y-7999833D01*
X11155857Y-8004595D01*
X11151095Y-8014119D01*
X11151095Y-8042690D01*
X11155857Y-8052214D01*
X11160619Y-8056976D01*
X11170143Y-8061738D01*
X11189190Y-8061738D01*
X11198714Y-8056976D01*
X11070143Y-8056976D02*
X11079667Y-8061738D01*
X11098714Y-8061738D01*
X11108238Y-8056976D01*
X11113000Y-8047452D01*
X11113000Y-8009357D01*
X11108238Y-7999833D01*
X11098714Y-7995071D01*
X11079667Y-7995071D01*
X11070143Y-7999833D01*
X11065381Y-8009357D01*
X11065381Y-8018881D01*
X11113000Y-8028405D01*
X11022524Y-8061738D02*
X11022524Y-7995071D01*
X11022524Y-8014119D02*
X11017762Y-8004595D01*
X11013000Y-7999833D01*
X11003476Y-7995071D01*
X10993952Y-7995071D01*
X10827286Y-8061738D02*
X10860619Y-8014119D01*
X10884429Y-8061738D02*
X10884429Y-7961738D01*
X10846333Y-7961738D01*
X10836810Y-7966500D01*
X10832048Y-7971262D01*
X10827286Y-7980786D01*
X10827286Y-7995071D01*
X10832048Y-8004595D01*
X10836810Y-8009357D01*
X10846333Y-8014119D01*
X10884429Y-8014119D01*
X10741571Y-8061738D02*
X10741571Y-8009357D01*
X10746333Y-7999833D01*
X10755857Y-7995071D01*
X10774905Y-7995071D01*
X10784429Y-7999833D01*
X10741571Y-8056976D02*
X10751095Y-8061738D01*
X10774905Y-8061738D01*
X10784429Y-8056976D01*
X10789190Y-8047452D01*
X10789190Y-8037928D01*
X10784429Y-8028405D01*
X10774905Y-8023643D01*
X10751095Y-8023643D01*
X10741571Y-8018881D01*
X10693952Y-8061738D02*
X10693952Y-7995071D01*
X10693952Y-8004595D02*
X10689190Y-7999833D01*
X10679667Y-7995071D01*
X10665381Y-7995071D01*
X10655857Y-7999833D01*
X10651095Y-8009357D01*
X10651095Y-8061738D01*
X10651095Y-8009357D02*
X10646333Y-7999833D01*
X10636810Y-7995071D01*
X10622524Y-7995071D01*
X10613000Y-7999833D01*
X10608238Y-8009357D01*
X10608238Y-8061738D01*
X10517762Y-8061738D02*
X10517762Y-8009357D01*
X10522524Y-7999833D01*
X10532048Y-7995071D01*
X10551095Y-7995071D01*
X10560619Y-7999833D01*
X10517762Y-8056976D02*
X10527286Y-8061738D01*
X10551095Y-8061738D01*
X10560619Y-8056976D01*
X10565381Y-8047452D01*
X10565381Y-8037928D01*
X10560619Y-8028405D01*
X10551095Y-8023643D01*
X10527286Y-8023643D01*
X10517762Y-8018881D01*
X10427286Y-8061738D02*
X10427286Y-7961738D01*
X10427286Y-8056976D02*
X10436810Y-8061738D01*
X10455857Y-8061738D01*
X10465381Y-8056976D01*
X10470143Y-8052214D01*
X10474905Y-8042690D01*
X10474905Y-8014119D01*
X10470143Y-8004595D01*
X10465381Y-7999833D01*
X10455857Y-7995071D01*
X10436810Y-7995071D01*
X10427286Y-7999833D01*
X10336810Y-8061738D02*
X10336810Y-8009357D01*
X10341571Y-7999833D01*
X10351095Y-7995071D01*
X10370143Y-7995071D01*
X10379667Y-7999833D01*
X10336810Y-8056976D02*
X10346333Y-8061738D01*
X10370143Y-8061738D01*
X10379667Y-8056976D01*
X10384429Y-8047452D01*
X10384429Y-8037928D01*
X10379667Y-8028405D01*
X10370143Y-8023643D01*
X10346333Y-8023643D01*
X10336810Y-8018881D01*
X10289190Y-7995071D02*
X10289190Y-8061738D01*
X10289190Y-8004595D02*
X10284429Y-7999833D01*
X10274905Y-7995071D01*
X10260619Y-7995071D01*
X10251095Y-7999833D01*
X10246333Y-8009357D01*
X10246333Y-8061738D01*
X10127286Y-7971262D02*
X10122524Y-7966500D01*
X10113000Y-7961738D01*
X10089190Y-7961738D01*
X10079667Y-7966500D01*
X10074905Y-7971262D01*
X10070143Y-7980786D01*
X10070143Y-7990309D01*
X10074905Y-8004595D01*
X10132048Y-8061738D01*
X10070143Y-8061738D01*
X10008238Y-7961738D02*
X9998714Y-7961738D01*
X9989190Y-7966500D01*
X9984429Y-7971262D01*
X9979667Y-7980786D01*
X9974905Y-7999833D01*
X9974905Y-8023643D01*
X9979667Y-8042690D01*
X9984429Y-8052214D01*
X9989190Y-8056976D01*
X9998714Y-8061738D01*
X10008238Y-8061738D01*
X10017762Y-8056976D01*
X10022524Y-8052214D01*
X10027286Y-8042690D01*
X10032048Y-8023643D01*
X10032048Y-7999833D01*
X10027286Y-7980786D01*
X10022524Y-7971262D01*
X10017762Y-7966500D01*
X10008238Y-7961738D01*
X9936810Y-7971262D02*
X9932048Y-7966500D01*
X9922524Y-7961738D01*
X9898714Y-7961738D01*
X9889190Y-7966500D01*
X9884429Y-7971262D01*
X9879667Y-7980786D01*
X9879667Y-7990309D01*
X9884429Y-8004595D01*
X9941571Y-8061738D01*
X9879667Y-8061738D01*
X9793952Y-7995071D02*
X9793952Y-8061738D01*
X9817762Y-7956976D02*
X9841571Y-8028405D01*
X9779667Y-8028405D01*
D10*
X11390619Y-5646237D02*
X11376333Y-5650999D01*
X11371571Y-5655761D01*
X11366809Y-5665285D01*
X11366809Y-5679571D01*
X11371571Y-5689094D01*
X11376333Y-5693856D01*
X11385857Y-5698618D01*
X11423952Y-5698618D01*
X11423952Y-5598618D01*
X11390619Y-5598618D01*
X11381095Y-5603380D01*
X11376333Y-5608142D01*
X11371571Y-5617666D01*
X11371571Y-5627190D01*
X11376333Y-5636714D01*
X11381095Y-5641475D01*
X11390619Y-5646237D01*
X11423952Y-5646237D01*
X11276333Y-5698618D02*
X11323952Y-5698618D01*
X11323952Y-5598618D01*
X11266809Y-5708142D02*
X11190619Y-5708142D01*
X11166810Y-5698618D02*
X11166810Y-5598618D01*
X11119190Y-5698618D02*
X11119190Y-5598618D01*
X11062048Y-5698618D01*
X11062048Y-5598618D01*
X11014429Y-5698618D02*
X11014429Y-5598618D01*
X10990619Y-5598618D01*
X10976333Y-5603380D01*
X10966810Y-5612904D01*
X10962048Y-5622428D01*
X10957286Y-5641475D01*
X10957286Y-5655761D01*
X10962048Y-5674809D01*
X10966810Y-5684333D01*
X10976333Y-5693856D01*
X10990619Y-5698618D01*
X11014429Y-5698618D01*
X12909190Y-5921938D02*
X12852048Y-5921938D01*
X12880619Y-6021938D02*
X12880619Y-5921938D01*
X12818714Y-6021938D02*
X12818714Y-5921938D01*
X12780619Y-5921938D01*
X12771095Y-5926700D01*
X12766333Y-5931462D01*
X12761571Y-5940986D01*
X12761571Y-5955271D01*
X12766333Y-5964795D01*
X12771095Y-5969557D01*
X12780619Y-5974319D01*
X12818714Y-5974319D01*
X12728238Y-5921938D02*
X12661571Y-5921938D01*
X12704428Y-6021938D01*
X12128333Y-5501738D02*
X12128333Y-5573167D01*
X12133095Y-5587452D01*
X12142619Y-5596976D01*
X12156905Y-5601738D01*
X12166428Y-5601738D01*
X12080714Y-5601738D02*
X12080714Y-5501738D01*
X12042619Y-5501738D01*
X12033095Y-5506500D01*
X12028333Y-5511262D01*
X12023571Y-5520786D01*
X12023571Y-5535071D01*
X12028333Y-5544595D01*
X12033095Y-5549357D01*
X12042619Y-5554119D01*
X12080714Y-5554119D01*
X11928333Y-5601738D02*
X11985476Y-5601738D01*
X11956905Y-5601738D02*
X11956905Y-5501738D01*
X11966428Y-5516024D01*
X11975952Y-5525548D01*
X11985476Y-5530310D01*
X14129190Y-7101938D02*
X14072048Y-7101938D01*
X14100619Y-7201938D02*
X14100619Y-7101938D01*
X14038714Y-7201938D02*
X14038714Y-7101938D01*
X14000619Y-7101938D01*
X13991095Y-7106700D01*
X13986333Y-7111462D01*
X13981571Y-7120986D01*
X13981571Y-7135271D01*
X13986333Y-7144795D01*
X13991095Y-7149557D01*
X14000619Y-7154319D01*
X14038714Y-7154319D01*
X13895857Y-7101938D02*
X13914905Y-7101938D01*
X13924428Y-7106700D01*
X13929190Y-7111462D01*
X13938714Y-7125748D01*
X13943476Y-7144795D01*
X13943476Y-7182890D01*
X13938714Y-7192414D01*
X13933952Y-7197176D01*
X13924428Y-7201938D01*
X13905381Y-7201938D01*
X13895857Y-7197176D01*
X13891095Y-7192414D01*
X13886333Y-7182890D01*
X13886333Y-7159081D01*
X13891095Y-7149557D01*
X13895857Y-7144795D01*
X13905381Y-7140033D01*
X13924428Y-7140033D01*
X13933952Y-7144795D01*
X13938714Y-7149557D01*
X13943476Y-7159081D01*
X11751690Y-6839238D02*
X11694548Y-6839238D01*
X11723119Y-6939238D02*
X11723119Y-6839238D01*
X11661214Y-6939238D02*
X11661214Y-6839238D01*
X11623119Y-6839238D01*
X11613595Y-6844000D01*
X11608833Y-6848762D01*
X11604071Y-6858286D01*
X11604071Y-6872571D01*
X11608833Y-6882095D01*
X11613595Y-6886857D01*
X11623119Y-6891619D01*
X11661214Y-6891619D01*
X11513595Y-6839238D02*
X11561214Y-6839238D01*
X11565976Y-6886857D01*
X11561214Y-6882095D01*
X11551690Y-6877333D01*
X11527881Y-6877333D01*
X11518357Y-6882095D01*
X11513595Y-6886857D01*
X11508833Y-6896381D01*
X11508833Y-6920190D01*
X11513595Y-6929714D01*
X11518357Y-6934476D01*
X11527881Y-6939238D01*
X11551690Y-6939238D01*
X11561214Y-6934476D01*
X11565976Y-6929714D01*
X10589190Y-6381938D02*
X10532048Y-6381938D01*
X10560619Y-6481938D02*
X10560619Y-6381938D01*
X10498714Y-6481938D02*
X10498714Y-6381938D01*
X10460619Y-6381938D01*
X10451095Y-6386700D01*
X10446333Y-6391462D01*
X10441571Y-6400986D01*
X10441571Y-6415271D01*
X10446333Y-6424795D01*
X10451095Y-6429557D01*
X10460619Y-6434319D01*
X10498714Y-6434319D01*
X10403476Y-6391462D02*
X10398714Y-6386700D01*
X10389190Y-6381938D01*
X10365381Y-6381938D01*
X10355857Y-6386700D01*
X10351095Y-6391462D01*
X10346333Y-6400986D01*
X10346333Y-6410509D01*
X10351095Y-6424795D01*
X10408238Y-6481938D01*
X10346333Y-6481938D01*
X14093603Y-5459511D02*
X14036460Y-5459511D01*
X14065031Y-5559511D02*
X14065031Y-5459511D01*
X14003126Y-5559511D02*
X14003126Y-5459511D01*
X13965031Y-5459511D01*
X13955507Y-5464273D01*
X13950745Y-5469035D01*
X13945984Y-5478559D01*
X13945984Y-5492845D01*
X13950745Y-5502368D01*
X13955507Y-5507130D01*
X13965031Y-5511892D01*
X14003126Y-5511892D01*
X13912650Y-5459511D02*
X13850745Y-5459511D01*
X13884079Y-5497606D01*
X13869793Y-5497606D01*
X13860269Y-5502368D01*
X13855507Y-5507130D01*
X13850745Y-5516654D01*
X13850745Y-5540464D01*
X13855507Y-5549987D01*
X13860269Y-5554749D01*
X13869793Y-5559511D01*
X13898364Y-5559511D01*
X13907888Y-5554749D01*
X13912650Y-5549987D01*
X11329190Y-5251738D02*
X11272048Y-5251738D01*
X11300619Y-5351738D02*
X11300619Y-5251738D01*
X11238714Y-5351738D02*
X11238714Y-5251738D01*
X11200619Y-5251738D01*
X11191095Y-5256500D01*
X11186333Y-5261262D01*
X11181571Y-5270786D01*
X11181571Y-5285071D01*
X11186333Y-5294595D01*
X11191095Y-5299357D01*
X11200619Y-5304119D01*
X11238714Y-5304119D01*
X11086333Y-5351738D02*
X11143476Y-5351738D01*
X11114905Y-5351738D02*
X11114905Y-5251738D01*
X11124429Y-5266024D01*
X11133952Y-5275548D01*
X11143476Y-5280310D01*
X12027819Y-6120157D02*
X11970676Y-6120157D01*
X11999247Y-6220157D02*
X11999247Y-6120157D01*
X11937342Y-6220157D02*
X11937342Y-6120157D01*
X11899247Y-6120157D01*
X11889723Y-6124919D01*
X11884962Y-6129681D01*
X11880200Y-6139204D01*
X11880200Y-6153490D01*
X11884962Y-6163014D01*
X11889723Y-6167776D01*
X11899247Y-6172538D01*
X11937342Y-6172538D01*
X11794485Y-6153490D02*
X11794485Y-6220157D01*
X11818295Y-6115395D02*
X11842104Y-6186823D01*
X11780200Y-6186823D01*
D12*
X12903000Y-6176500D02*
G75*
G03*
X12903000Y-6176500I-120000J0D01*
G01*
X11905000Y-5836500D02*
X12185000Y-5836500D01*
X11905000Y-5636500D02*
X11905000Y-5836500D01*
X12185000Y-5636500D02*
X11905000Y-5636500D01*
X12185000Y-5836500D02*
X12185000Y-5636500D01*
X14123000Y-7356500D02*
G75*
G03*
X14123000Y-7356500I-120000J0D01*
G01*
X11725500Y-7034000D02*
G75*
G03*
X11725500Y-7034000I-70000J0D01*
G01*
X10573000Y-6636500D02*
G75*
G03*
X10573000Y-6636500I-120000J0D01*
G01*
X14123000Y-5306500D02*
G75*
G03*
X14123000Y-5306500I-120000J0D01*
G01*
X11273000Y-5456500D02*
G75*
G03*
X11273000Y-5456500I-70000J0D01*
G01*
X11937000Y-6288500D02*
G75*
G03*
X11937000Y-6288500I-70000J0D01*
G01*
M02*
