M48
; DRILL file {KiCad (6.0.11)} date Thu Jun  6 18:38:33 2024
; FORMAT={-:-/ absolute / inch / decimal}
; #@! TF.CreationDate,2024-06-06T18:38:33+02:00
; #@! TF.GenerationSoftware,Kicad,Pcbnew,(6.0.11)
; #@! TF.FileFunction,Plated,1,4,PTH
FMAT,2
INCH
; #@! TA.AperFunction,Plated,PTH,ComponentDrill
T1C0.0079
; #@! TA.AperFunction,Plated,PTH,ViaDrill
T2C0.0157
; #@! TA.AperFunction,Plated,PTH,ComponentDrill
T3C0.0236
; #@! TA.AperFunction,Plated,PTH,ComponentDrill
T4C0.0394
%
G90
G05
T1
X2.8559Y-2.4944
X2.8559Y-2.5544
X2.8859Y-2.4644
X2.8859Y-2.5244
X2.8859Y-2.5844
X2.9159Y-2.4944
X2.9159Y-2.5544
X2.946Y-2.4644
X2.946Y-2.5244
X2.946Y-2.5844
X2.976Y-2.4944
X2.976Y-2.5544
X5.2817Y-1.9164
X5.2817Y-1.9588
X5.5063Y-1.9164
X5.5063Y-1.9588
T2
X2.6272Y-2.1994
X2.6272Y-2.7939
X2.6272Y-2.8904
X2.6321Y-2.0941
X2.677Y-2.7992
X2.677Y-2.887
X2.7384Y-2.7998
X2.7669Y-2.2073
X2.8378Y-2.2033
X2.8713Y-2.912
X2.9362Y-2.9593
X2.9972Y-2.7289
X3.0268Y-2.8018
X3.0465Y-2.0242
X3.0622Y-3.04
X3.077Y-2.7969
X3.078Y-2.1917
X3.1272Y-2.1915
X3.135Y-2.7998
X3.1616Y-2.6433
X3.177Y-2.1974
X3.1941Y-1.9278
X3.2709Y-2.7152
X3.328Y-3.0419
X3.3978Y-2.7033
X3.3988Y-2.8215
X3.4028Y-2.3923
X3.4461Y-2.603
X3.501Y-2.6057
X3.5041Y-2.2191
X3.5258Y-2.101
X3.5346Y-2.7024
X3.5543Y-2.3185
X3.5642Y-2.1659
X3.5839Y-3.0341
X3.6075Y-1.79
X3.6085Y-2.5862
X3.6114Y-1.9238
X3.6564Y-2.4117
X3.6695Y-2.5026
X3.6902Y-2.349
X3.7051Y-2.4636
X3.7177Y-2.1295
X3.76Y-2.6453
X3.7753Y-2.5372
X3.7768Y-2.0931
X3.8289Y-2.3815
X3.8289Y-2.5843
X3.8299Y-1.9356
X3.8476Y-2.66
X3.8821Y-2.4878
X3.9106Y-1.79
X3.9303Y-2.0449
X3.9343Y-2.7772
X3.952Y-1.9219
X3.9972Y-1.853
X4.0248Y-2.5213
X4.0258Y-2.4602
X4.0591Y-2.3156
X4.0888Y-2.0675
X4.0976Y-2.1502
X4.1016Y-1.8638
X4.1163Y-2.4307
X4.1163Y-2.4907
X4.1163Y-2.5508
X4.1193Y-2.3726
X4.202Y-2.7388
X4.2059Y-2.4593
X4.2059Y-2.5203
X4.2344Y-3.0665
X4.264Y-2.0488
X4.265Y-2.1089
X4.2965Y-2.6325
X4.3112Y-2.8736
X4.3132Y-2.3549
X4.3516Y-3.1817
X4.3888Y-2.7506
X4.4126Y-3.223
X4.4234Y-2.2299
X4.4343Y-2.0498
X4.4382Y-1.9907
X4.4402Y-3.0862
X4.442Y-2.538
X4.4429Y-2.4455
X4.4439Y-3.0193
X4.4441Y-2.1246
X4.4589Y-2.2604
X4.4657Y-1.8057
X4.4671Y-2.6561
X4.4724Y-2.3677
X4.5337Y-2.4209
X4.5366Y-1.8923
X4.5711Y-2.2112
X4.5711Y-2.2614
X4.5798Y-2.8745
X4.5819Y-2.6965
X4.6224Y-2.5057
X4.6262Y-2.7378
X4.6358Y-2.2673
X4.6419Y-2.0508
X4.6478Y-2.0911
X4.6646Y-1.8844
X4.6646Y-1.9494
X4.6691Y-2.5756
X4.7035Y-2.5447
X4.7146Y-3.1897
X4.7228Y-2.7274
X4.7364Y-3.0852
X4.7541Y-2.4445
X4.8122Y-2.2417
X4.8398Y-1.7939
X4.8978Y-2.0616
X4.9224Y-2.9179
X4.9244Y-2.8195
X4.9776Y-3.1679
X5.0425Y-2.2112
X5.0425Y-3.0222
X5.0445Y-1.9691
X5.0514Y-2.5862
X5.0533Y-2.7831
X5.078Y-2.3884
X5.1203Y-2.3077
X5.2177Y-2.3077
X5.2315Y-2.4573
X5.2709Y-2.9189
X5.2846Y-3.1561
X5.2925Y-2.7309
X5.3398Y-2.1994
X5.3614Y-2.5803
X5.3752Y-2.7388
X5.3988Y-2.2585
X5.4028Y-2.9159
X5.4473Y-2.4745
X5.4657Y-2.1285
X5.4894Y-3.1561
X5.4941Y-2.5144
X5.499Y-2.2764
X5.5012Y-2.4268
X5.5169Y-2.6797
X5.5406Y-2.5931
X5.5445Y-2.5341
X5.5514Y-2.1846
X5.572Y-2.8963
X5.6213Y-2.3431
X5.6252Y-2.6217
X5.6449Y-2.2063
X5.6596Y-2.7732
T4
X3.9959Y-1.7972
X4.0959Y-1.7972
X4.1959Y-1.7972
X4.2959Y-1.7972
T3
G00X5.672Y-2.3256
M15
G01X5.7154Y-2.3256
M16
G05
G00X5.672Y-2.6657
M15
G01X5.7154Y-2.6657
M16
G05
G00X5.8425Y-2.3256
M15
G01X5.874Y-2.3256
M16
G05
G00X5.8425Y-2.6657
M15
G01X5.874Y-2.6657
M16
G05
T0
M30
